<svg id="logo_shopify" version="1.1" xmlns="http://www.w3.org/2000/svg" xmlns:xlink="https://www.w3.org/1999/xlink" viewBox="0 0 280 280">
  <path d="M231.621,54.51c-0.192,-1.403 -1.413,-2.178 -2.433,-2.274c-1.009,-0.085 -22.434,-1.667 -22.434,-1.667c0,0 -14.86,-17.272 -14.541,-17.293l-10.601,245.732l80.42,-18.249c0,0 -30.209,-204.847 -30.411,-206.249" />
  <path d="M153.635,42.824c0,-0.945 0.011,-1.88 0.011,-2.9c0,-8.912 -1.232,-16.081 -3.218,-21.775c7.945,0.999 13.245,10.07 16.655,20.501c-3.994,1.243 -8.53,2.645 -13.448,4.174m-17.547,88.758c0,0 -9.316,-4.971 -20.713,-4.971c-16.72,0 -17.559,10.516 -17.559,13.161c0,14.467 37.592,20.002 37.592,53.875c0,26.641 -16.857,43.795 -39.578,43.795c-27.299,0 -41.246,-17.016 -41.246,-17.016l7.308,-24.187c0,0 14.34,12.332 26.449,12.332c7.903,0 11.111,-6.224 11.111,-10.792c0,-18.854 -30.847,-19.714 -30.847,-50.688c0,-26.088 18.685,-51.337 56.393,-51.337c14.531,0 21.701,4.175 21.701,4.175l-10.611,31.653Zm-6.193,-121.792c1.54,0 3.112,0.52 4.599,1.561c-11.514,5.428 -23.857,19.109 -29.072,46.429c-7.616,2.369 -15.073,4.684 -21.956,6.82c6.108,-20.841 20.607,-54.81 46.429,-54.81m14.308,34.394l0,1.561c-8.753,2.72 -18.238,5.672 -27.777,8.615c5.354,-20.681 15.381,-30.666 24.155,-34.437c2.209,5.545 3.622,13.522 3.622,24.261m39.992,-10.835c-0.191,0.053 -3.261,1.009 -8.338,2.592c-4.971,-14.34 -13.735,-27.511 -29.147,-27.511c-0.436,0 -0.871,0.021 -1.317,0.042c-4.377,-5.821 -9.815,-8.338 -14.531,-8.338c-35.924,0 -53.1,45.027 -58.475,67.907c-13.968,4.334 -23.879,7.425 -25.153,7.818c-7.797,2.454 -8.041,2.698 -9.061,10.059c-0.775,5.577 -21.17,163.676 -21.17,163.676l157.399,29.54l10.622,-245.976c-0.319,0.064 -0.616,0.128 -0.829,0.191" />
</svg>
