<svg id="logo_north-navy" version="1.1" xmlns="http://www.w3.org/2000/svg" xmlns:xlink="https://www.w3.org/1999/xlink" viewBox="0 0 280 228">
  <polygon points="90.648,97.299 81.115,84.939 79.52,84.939 79.52,100.333 81.291,100.333 81.291,87.974 90.824,100.333 92.418,100.333 92.418,84.939 90.648,84.939" />
  <path d="M114.917,84.719c-4.574,0-7.95,3.299-7.95,7.917c0,4.619,3.376,7.917,7.95,7.917c4.585,0,7.95-3.298,7.95-7.917 C122.867,88.018,119.503,84.719,114.917,84.719z M114.917,98.849c-3.453,0-6.092-2.507-6.092-6.213c0-3.705,2.639-6.212,6.092-6.212 c3.463,0,6.102,2.507,6.102,6.212C121.02,96.342,118.381,98.849,114.917,98.849z"/>
  <path d="M148.841,89.282c0-2.782-1.913-4.343-5.377-4.343h-6.037v15.394h1.77v-6.696h1.946l5.421,6.696h2.199l-5.531-6.696h0.253 C146.774,93.637,148.841,91.943,148.841,89.282z M139.198,92.032V86.6h4.244c2.309,0,3.563,0.902,3.563,2.683 c0,1.792-1.221,2.749-3.563,2.749H139.198z"/>
  <polygon points="161.521,86.611 166.864,86.611 166.864,100.333 168.624,100.333 168.624,86.611 173.967,86.611 173.967,84.939 161.521,84.939 "/>
  <polygon points="198.709,84.939 198.709,91.745 189.396,91.745 189.396,84.939 187.626,84.939 187.626,100.333 189.396,100.333 189.396,93.417 198.709,93.417 198.709,100.333 200.48,100.333 200.48,84.939 "/>
  <path d="M79.339,139.781c0,2.386,1.705,3.849,4.387,3.849c2.177,0,3.606-1.099,4.739-2.485l2.342,2.276h2.375l-3.728-3.629 l2.551-3.849l-1.32-0.835l-2.386,3.563l-3.453-3.354c1.55-1.144,2.991-2.353,2.991-4.123c0-1.958-1.583-3.376-3.849-3.376 c-2.298,0-3.881,1.54-3.881,3.464c0,1.495,0.726,2.474,2.254,3.97C80.802,136.427,79.339,137.78,79.339,139.781z M87.322,140.045 c-1,1.286-1.979,2.034-3.497,2.034c-1.605,0-2.727-0.956-2.727-2.353c0-1.386,1.078-2.419,2.375-3.398L87.322,140.045z  M81.879,131.38c0-1.177,0.825-2.012,2.111-2.012c1.276,0,2.1,0.781,2.1,1.902c0,1.143-1.067,2.034-2.353,2.98 C82.341,132.875,81.879,132.304,81.879,131.38z"/>
  <polygon points="110.083,131.061 119.617,143.421 121.211,143.421 121.211,128.027 119.441,128.027 119.441,140.386 109.908,128.027 108.313,128.027 108.313,143.421 110.083,143.421 "/>
  <path d="M138.399,139.133h7.62l1.748,4.288h1.891l-6.323-15.394h-2.188l-6.323,15.394h1.837L138.399,139.133z M142.215,129.775 l3.134,7.686h-6.268L142.215,129.775z"/>
  <polygon points="168.673,143.421 174.841,128.027 173.016,128.027 167.595,141.661 162.185,128.027 160.305,128.027 166.484,143.421 "/>
  <polygon points="192.842,143.421 194.602,143.421 194.602,136.966 200.661,128.027 198.604,128.027 193.733,135.328 188.862,128.027 186.751,128.027 192.842,136.944 "/>
  <path d="M280,113.135h-26.91L140.611,0.657L140,0.045L26.91,113.135H0v1.73h26.91L140,227.955l113.09-113.09H280V113.135z M140,2.491l110.644,110.644H29.356L140,2.491z M140,225.51L29.356,114.865h221.288L140,225.51z"/>
</svg>
