<svg
  id="LogoNorthNavy"
  xmlns="http://www.w3.org/2000/svg"
  viewBox="0 0 280 228"
>
  <path
    d="m90.648 97.299-9.533-12.36H79.52v15.394h1.771V87.974l9.533 12.359h1.594V84.939h-1.77zm24.269-12.58c-4.574 0-7.95 3.299-7.95 7.917 0 4.619 3.376 7.917 7.95 7.917 4.585 0 7.95-3.298 7.95-7.917 0-4.618-3.364-7.917-7.95-7.917zm0 14.13c-3.453 0-6.092-2.507-6.092-6.213 0-3.705 2.639-6.212 6.092-6.212 3.463 0 6.102 2.507 6.102 6.212.001 3.706-2.638 6.213-6.102 6.213zm33.924-9.567c0-2.782-1.913-4.343-5.377-4.343h-6.037v15.394h1.77v-6.696h1.946l5.421 6.696h2.199l-5.531-6.696h.253c3.289 0 5.356-1.694 5.356-4.355zm-9.643 2.75V86.6h4.244c2.309 0 3.563.902 3.563 2.683 0 1.792-1.221 2.749-3.563 2.749h-4.244zm22.323-5.421h5.343v13.722h1.76V86.611h5.343v-1.672h-12.446zm37.188-1.672v6.806h-9.313v-6.806h-1.77v15.394h1.77v-6.916h9.313v6.916h1.771V84.939zm-119.37 54.842c0 2.386 1.705 3.849 4.387 3.849 2.177 0 3.606-1.099 4.739-2.485l2.342 2.276h2.375l-3.728-3.629 2.551-3.849-1.32-.835-2.386 3.563-3.453-3.354c1.55-1.144 2.991-2.353 2.991-4.123 0-1.958-1.583-3.376-3.849-3.376-2.298 0-3.881 1.54-3.881 3.464 0 1.495.726 2.474 2.254 3.97-1.559 1.175-3.022 2.528-3.022 4.529zm7.983.264c-1 1.286-1.979 2.034-3.497 2.034-1.605 0-2.727-.956-2.727-2.353 0-1.386 1.078-2.419 2.375-3.398l3.849 3.717zm-5.443-8.665c0-1.177.825-2.012 2.111-2.012 1.276 0 2.1.781 2.1 1.902 0 1.143-1.067 2.034-2.353 2.98-1.396-1.375-1.858-1.946-1.858-2.87zm28.204-.319 9.534 12.36h1.594v-15.394h-1.77v12.359l-9.533-12.359h-1.595v15.394h1.77zm28.316 8.072h7.62l1.748 4.288h1.891l-6.323-15.394h-2.188l-6.323 15.394h1.837l1.738-4.288zm3.816-9.358 3.134 7.686h-6.268l3.134-7.686zm26.458 13.646 6.168-15.394h-1.825l-5.421 13.634-5.41-13.634h-1.88l6.179 15.394zm24.169 0h1.76v-6.455l6.059-8.939h-2.057l-4.871 7.301-4.871-7.301h-2.111l6.091 8.917z"
  ></path>
  <path
    d="M280 113.135h-26.91L140.611.657 140 .045 26.91 113.135H0v1.73h26.91L140 227.955l113.09-113.09H280v-1.73zM140 2.491l110.644 110.644H29.356L140 2.491zm0 223.019L29.356 114.865h221.288L140 225.51z"
  ></path>
</svg>
