<svg id="LogoFringe" xmlns="http://www.w3.org/2000/svg" viewBox="0 0 280 156">
  <path
    d="M270.037 50.951c-.346-.201-.1-.201.102 0 .749-1.884-1.475-3.269-2.14-1.63.066-.161-.029.373-.204.102.066.387.114.387 0 .815.463 1.112 1.395 1.651 2.242.713zM107.706 40.659c-.132.136-.063.308.102.408-.018-.358.344-.336.408-.612-.114-.021-.159-.113-.204-.204.145.025.172.168.305.204-.051-.589-.097-.542.204-.204-.295-.476.404-.647 0-.306.544.053.172-.587.509-.306.064-.242.137-.475.408-.51-.226-.367.402-.726-.204-.407.158-.181.28-.399.407-.611-.089.21.264.457.306.204-.209-.029-.203-.272-.306-.407.649-.884 1.097-1.893 1.732-2.65-.017.255.157.319.306.408.151-.121.158-.385.305-.51 0 .056.083.116.102 0-.151-.031-.439-.429-.204-.51.083.461.32-.479.204.204.32.116.269-.029.51.102a.86.86 0 0 0-.102-.917c.461-.317.327-.554.306-.917.145.025.172.168.306.204.135-.255-.403-.319-.102-.407.174.386.168-.221.306-.204.022.114.113.159.204.204-.015-.28-.019-.525.204-.306-.076-.488-.066-.782.204-.815-.143-.026-.116-.224-.204-.306.286.283.636-.396.408-.815.146.024.172.167.306.204-.038-.535.444-.974 0-1.325.145.024.172.168.305.204-.041-.434.331-.497.306-.917-.037-.618-.129-.096.102-.509.093-.166.003-.509 0-.713.255-.003.451-1.31.51-1.529.024.111.168.245.204.102-.118-.595.898-1.477 1.019-1.835-.21.115-.089-.006-.204.204.001-.102-.082-.121-.102-.204.1-.299-.058-.031-.102-.407-.255.024-.542.291-.407.51a.514.514 0 0 0-.306-.306c-.096.299-.152.379-.204.51-.053-.151-.151-.257-.204-.407.549-.024.256-1.676.51-1.631.074-.277-.202-.205-.204-.407.145.024.172.167.306.204-.068-.394 0-.362-.102-.611.102-.001.121.082.204.101.013-.281.194-.35-.102-.204.453-.977.662-1.925 1.325-2.547-.488-.071-.236-.351-.408-.612v.204c-.249-.258-.217.214-.611.102.204.537-.051.053-.204.204-.701.693-.636 2.018-1.223 2.242.114.021.159.113.204.204-.437-.094-.441.605-.714 1.121.304-.004.118-.393.408-.611-.031.481-.103.579-.204.815-.092-.179-.375-.168-.408-.407.445-.982.838-2.014 1.529-2.752-.2.031-.202-.138-.306-.204.021.409-.026.456-.204.204-.12.152-.088.456-.408.408.031-.346.697-1.019.51-.917-.188.215-.357.289-.51.305.351.451-.619.396-.408.612.312.103-.663.967-.509 1.426 0-.056.082-.116.102 0-.136.133-.308.063-.408-.102.217-.05-.172-.562.204-.306-.404-.775.154-1.38.714-1.835-.13-.255.052-.319-.102-.407-.006.062-.015.121-.102.102-.347.109.284.032.102.305-.391-.047-.462.552-.815.816-.131-.438.463-.762.306-1.121-.16.078-.152.323-.408.305.022.289-.537 1.047-1.019 1.427.373-.437.324-.635.611-1.325-.622.253-.846 2.006-1.325 1.732.222-.206.186-.67.408-.611-.123-.022-.063-.114 0-.204-.469.007-.312.047-.306-.305-.142.232-.352.395-.51.611.011-.136.191-.561 0-.306-.311.427.182.704.102.917-.246-.312-.266-.319-.306-.713-.152.017-.376-.037-.408.101.175-.005.261.079.306.204-.063-.141-.392-.015-.408-.204.038-.302.177-.502.408-.611.078-.296.161-.586.407-.714.023-.173-.115-.252-.102 0a5.653 5.653 0 0 0-.917 1.325c-.054.147.397.249.102.306-.193-.011-.071-.337-.306-.306.074.447-.202-.082-.204.204.114.022.159.114.204.204-.33-.221-.19.012-.305.102-.114-.021-.159-.113-.204-.204.195-.276.685-.65.516-.998-.434.618-.934 1.261-1.128 1.202.281.032.177.315 0 .407-.04-.175.151-.261 0-.305-.246.22-.385 1.369-.611 1.019-.024.191-.168-.058-.204.102.295.057-.156.159-.102.305.417.286.047.298-.102.612-.17-.321.379-.417.102-.509-.042.127-.132.207-.306.204-.04.175.151.261 0 .306-.208-.064-.028-.515-.407-.408-.192.18.139.316-.204.408.108-.196.022-.577.408-.714-.114.147-.11.249.102.306.215-.213-.134-.382-.306-.509-.343.432-.245.944-.611.917.078.044.155.45-.102.204.045.448-.201.446-.306.509.081.011.309.337.102.306-.024-.111-.168-.245-.204-.102.079.022.118.086.102.204-.241-.158-.906.639-.815.612-1.72.498-2.858 2.534-3.872 3.872-.695 3.033-4.46 5.995-3.261 9.987 1.221 4.057 6.881 4.694 9.274 1.831zm5.401-10.598c.485.136-.399.868-.102 1.121-.414.033-.006-.646.102-1.121zm-1.529 4.892c.42-.049.145.497 0 .509-.238-.026-.058-.448 0-.509z"
  ></path>
  <path
    d="M274.725 58.492c-1.05 1.183-2.138 3.562-2.955 4.789-3.528 5.299-8.801 9.039-13.349 11.821.022-.014-.111-.149-.204-.102-.987.497-2.419 1.662-3.77 1.936-.808.615-3.372 1.127-3.974 1.528-1.548.286-3.422.883-5.197 1.427-4.438.725-11.831 1.31-14.368-3.771-1.47-2.566-1.984-5.526-1.325-8.661.786 1.643 2.203 2.293 4.484 2.038 2.446-.274 4.239-1.54 6.521-2.854 4.493-2.586 7.981-6.739 10.394-10.904 4.133-6.499-.219-13.035-7.337-13.961-3.729-.485-8.073.807-11.515 2.65a25.674 25.674 0 0 0-5.4 3.872c-5.178 4.818-9.257 12.177-10.089 19.973-4.218-.849-7.912 1.461-10.292 3.057-1.642 1.101-3.688 1.394-5.503 2.344 3.775-2.287 7.251-4.935 11.006-6.929 1.88-.998 4.203-1.828 5.605-2.955.063-.394.084-.419-.102-.713.524.237-.381-.864-.509-.612-.074-.151-.963.003-1.325.306-.028.022-.631.146-1.019.509-.218.204-1.193.366-1.732.815-.885.737-2.866 1.244-4.28 2.038.313-.342-.999.311-.917.407-.989.216-2.027.616-2.751 1.121-3.035 1.491-7.715 3.693-10.801 6.318-2.772 2.357-5.728 4.644-7.541 7.643-1.455 2.406-4.316 9.294.714 10.598 2.046.53 4.633-.302 6.318-1.121 2.528-1.228 5.45-4.193 8.152-6.624 3.787-3.407 7.588-8.032 12.636-9.579-.109.777-.389 1.562-.407 2.242-3.69 8.642-7.292 18.251-11.311 26.902-2.556 5.502-5.23 12.527-10.089 15.082-3.463 1.042-7.468-.149-10.292-1.733-9.144-5.127-15.464-15.577-17.629-24.864.001.057-.082.116-.102 0-.787-3.121-1.249-5.927-1.528-9.171-.213-2.472-.24-5.322-.407-8.152.341-.057.164-1.743.204-2.344.815-12.593 4.564-27.337 12.432-37.907 3.341-3.36 7.915-7.703 13.044-9.069.318-.085 1.122-.204.917 0 .381-.513 1.339-.482 1.733-.509-.41.25-.262.068-.51.407.138.1.204.272.306.407 1.476-.127 1.951-.78 2.751-.204a2.449 2.449 0 0 0-.407-.407c.41-.04.452.189.611-.102-.063.411.705.937.713.612-.032-.003-.627-.227-.408-.407.442.381 1.546 1.35 2.038 1.325.329.489.79.669 1.325.713-.114.022-.159.114-.204.204a.481.481 0 0 0 .306-.102c-.132.136-.062.307.102.407.016-.12-.018-.289.102-.306-.017.518.027.562.204.204-.096.229.139.484.259.353a1.828 1.828 0 0 1-.018-.077c-.087-.05-.152-.146-.037-.175l.037.175a.25.25 0 0 0 .065.029c-.01.031-.031.031-.046.048.083.337.147.282.546.501-.125-.084-.269-.221-.092-.243.826.978 1.032 1.01 1.835 1.528.126.396.625 1.086.917.815-.03.509.191.576.204.306.933 1.259 1.706 1.912 2.344 2.445-.111.024-.245.168-.102.204.49-.02 1.24 1.84.917.815.486.663.576.694.971 1.002-.149-.061-.315-.024-.156.119.196-.301.322.634.51.102.139.256.753.931.89 1.156-.026-.045-.062-.08-.075-.137.479-.032.641.809.714.306.141.229.086.556.305.204.038.58.937.349.815.815.255.134.319-.403.407-.102-.171.329 1.198.61 1.427.815-.114.011-.159-.147-.204 0 .417.024.579.371 1.019 0 .018.152-.036.376.102.408.07-.321-.011-.417.102-.509.187.254.281.602.714.611.302.043.279-.646.612-.102.17-.384-.474-.464-.204-.612.355.394.373.416.917.306-.079-.023-.201-.003-.204-.102.47.081.291-.113.407-.204.125.311.389-.149.51.102-.212-.637.113.102.306-.204-.114-.022-.159-.113-.204-.204.151.053.257.151.407.204.17-.32-.379-.417-.102-.509.437.58 1.149.144 1.325-.204.226.146-.128.249.102.306.127-.281.297-.157.51-.102.016-.12-.018-.289.102-.306.177.424.859-.357.917.102.084-.365.357.041.509-.306-.114-.021-.159-.113-.204-.204.278.074.205-.202.407-.204.03.062.254.392 0 .407-.016-.12.018-.289-.102-.306-.332.333.276.562.408.204-.158-.092-.053-.375 0-.407.256.482.379-.021.611.204-.212.226-.43.192-.611 0-.016.549.416.059.611.306.056-.181.052-.423.204-.509.205.208-.045.199-.102.407.246.042.222-.186.51-.102-.002-.349-.265.014-.306-.407.214.224.453.021.612-.102-.03.121-.41.385-.102.51.087-.077.592.001.713-.306.023.079.003.201.102.204.008-.306-.145-.283-.303-.229-.002.009 0 .017-.003.026l-.022-.017c-.082.03-.162.06-.218.056.037.054.026.147-.065.165-.001-.134-.179-.093-.204-.204.228-.194.273-.197.487-.017l.025-.009c.048-.227-.35-.416-.105-.484.024.281.301.311.51.407a.481.481 0 0 0-.102-.306c.159.261.677.156.525-.085.342.28 1.136.594.902-.016-.475-.09.14.264-.204.305.032-.21-.711-.324-.51-.611.311.272.136.096.407.407.225-.146-.128-.249.102-.306.026.143.223.116.305.204.25-.136-.184-.308.102-.408-.048.32.274.269.305.509.713-.222.98-.191.407-.713.181.092.298.246.51.306.098-.19-.305-.341 0-.407-.126.52.828.047.407-.204.304.382.48-.179.51.204.242-.153.102-.429.204-.51a.718.718 0 0 0 .204.306c-.006-.191.079-.216.204-.102.041-.175-.151-.261 0-.306.433.427.805-.674 1.121-.407-.151.003.019-.513.204-.509-.109.262.957-.422 1.121-.612-.352-.056-.206-.609-.509-.713-.454.268-.67.23-1.121.305.076-.28.312-.117.306-.407.018.119.161.111.306.102.202-.165.661-.406.899-.521-.235-.189-.619.32-.796-.091.175-.041.261.151.306 0-.542-.274.08-.585-.306-.815-.247.137-.064.204-.204.306-.099-.349-.588.272-.713-.102.324-.25 1.195-.417 1.426-.714-.812.276-1.055.349-1.528.612-.102-.483.458-.341.305-.713.197.32 1.232-.187 1.019-.306-.029-.086-.514.147-.815.306.001-.102-.082-.121-.102-.204.114-.011.159.147.204 0-.422-.161-.997-.642-1.223-.408.079.022.119.086.102.204-.362-.086-.61.296-.713-.102.13.006.141.131.306.102.048-.32-.274-.269-.306-.509.237.069.272.339.509.407.028-.299-.408-.379 0-.51-.246.257.159.181.204.102-.084-.019.119-.332.102-.407.01.075.398.075.408 0-.357-.342.319.08.305-.306-.326-.119-.685.102-1.019.102.304-.484-.565.117-.509-.306.546-.291 1.235-.788 1.63-1.223-.178-.129-.58.069-.611-.408-.565.205-.213.166-.306-.101-.296.795-1.128.211-1.121.917-.536-.255-.41.207-.917 0 .336-.266.377-.221.51-.612-.803.661-1.422 1.301-2.242 1.223-.13.255.052.319-.102.407-.132-.239.052-.228-.204-.407 1.219-1.047 2.279-2.29 3.261-3.363.049.12.108.231.204.305-.101-.382.501-.222.204-.509-.42-.049.098.274-.306.306-.024-.146-.168-.172-.204-.306.451.145.267-.345.612-.306.016.12-.018.29.102.306-.102-.316.542-.396.204-.612a.718.718 0 0 1-.204.306.51.51 0 0 1-.305-.306c.567.291.181-.202.407-.407.011.36.337-.217.305.102-.001.135-.178.093-.204.204.278-.074.206.202.408.204.224-.088.224-.656 0-.407.282.044.005.321-.204.204.191-.194.011-.256 0-.51.318.327.048-.284.396-.204-.396-.447.807-1.903.827-2.139.001-.017-.003-.028-.005-.042-.26-.113-.024-.163 0 0 .03.013.062.027.107.042.212-.784.233-1.143.611-1.121.304-.967.774-1.996 1.427-3.057-.287-.276.221-.574-.204-.713-.296.594-.229.699-.509 1.121-.202.725-.438.899-.714 1.63-.371-.368.316-.676 0-.815.319.01.255-.682.509-.815.019-.087-.039-.096-.102-.102.058-.295.159.156.306.102-.047-.312.179-1.002.355-1.461-.545.682-.574 1.035-1.272 1.767-.009-.553.455-.605.204-1.121-.248.767-.266 1.057-.714 1.019.107-.627.53-.587.408-1.325.194.192.555-.397.204-.51.029.232-.024.383-.204.407-.338-.635.281-2.058-.306-.407-.165-.289-.419.619-.408.714 0-.057.082-.116.102 0-.414.164-.062.312-.509.509.283-.318-.326-.438 0-.713.024.11.167.244.204.101-.414-.509.779-1.723.917-2.242.042-.156-.12-.359-.102-.407-.046.125.285-.041.305-.102.144-.424-.31-.404.204-.305.352-1.347 1.606-2.96 1.733-3.974-.257.491-.469 1.178-.917 1.325.302.201-.236.761-.408.509.23-.212.252-.63.51-.815-.656.182-.837 1.207-.612 1.427-.049-.181-.109.044-.204.102.013-.256.195-.319-.102-.408-.001.446-.376.629 0 .917-.146-.024-.172-.168-.305-.204-.228.57-.361.967-.714 1.121.298.391-.391.416-.102.815-.584.039-.741 1.033-1.223 1.631.004-.789.527-1.492.917-2.242-.379-.39-.065-.312.102-.305-.483-.738.824-1.274.407-1.834.218.184.647-.531.41-.811a1.588 1.588 0 0 0-.104.403c-.242.077-.83 1.077-.714 1.529-.589.106-.771 1.137-1.121 1.63.117-.165-.259-.052-.243.053-.104-.181.093-.656-.266-.358.236.163-.637.564-.612 0 .365-.096.669-.61.204-.713-.078.296-.161.586-.407.713.269-1.073 1.198-2.128 1.528-3.159.357.52-.784 1.423-.815 2.242-.025-.111-.168-.245-.204-.102.214.029-.147.272.102.408.127-.046.468-.482.408-.612.482-.866 1.262-2.526 2.344-3.872-.171-.317.436-.394.306-.815.568-.251.582-1.341 1.223-1.732-.071-.302-.122-.503 0-.612.06.126.214-.107.306-.102.454-1.293 1.425-2.408 2.446-3.465a.706.706 0 0 1-.305-.204c.797-.564.76-1.257 1.427-1.528-.322-.367.608-.417.408-.815-1.601 1.617-3.138 2.974-4.382 4.789-.114-.021-.159-.113-.204-.204.78-1.004 2.225-2.222 2.751-3.668.31.057.843-1.188 1.019-.714.044-.194.219-.256.204-.509-.995.407-1.343 1.413-1.936 2.038-.079.084-.424.211-.51.306-.947 1.055-1.62 2.193-2.853 3.261.157-.43.437-.454.305-.714.251-.074 1.455-1.267 1.427-1.936-.593.936-2.228 2.604-2.955 3.567-.282.372-.039.674.102.815-.401.209-.395.917-.51 1.121.022-.039-.141-.17-.204-.102-.199.219-.028.515-.204.815-.024.042-.182-.112-.204-.101-.038.019-.694 1.15-.612 1.018-.185.296-.389 1.059-.815 1.427.079.022.201.002.204.102-.704.717-.825 1.062-1.223 2.242-.273.114-1.135 1.427-.815 1.528.142-.684.898-1.233 1.223-2.242.001.134.179.093.204.204-.452.42-.615 1.296-.917 1.834-.024.042-.194-.122-.204-.102-.079.162-.211 1.025-.713.815.108.046.204-.74-.102-.101-.061-.211.126-.67-.102-.714.006.175-.078.261-.204.306-1.024-.685-.491-1.377-.713-2.446-.225.367-.244.768-.204.917-.303-.308-.517.334-.51-.102-.001.627-.566.68-.714.917.029-.046.141.188.102.305-.049.147-.372.316-.408.408-.044.111.122.27.102.305-.024.043-.194-.121-.204-.102-.156.31.096.229 0 .509-.12.351-.818.809-.509 1.427-.131-.006-.141-.131-.306-.102-.094.517-.269.595.102.917-.23-.252-.572-.386-.305.102-.474.305-1.115 1.456-1.121 1.936-.239-.248-.228.114-.407.204.098-.599.021-.619.305-.917-.478-.213.241-1.025-.204-.917.244-.267.314-.737.204-1.019-.286.319-.156.615-.305.917-.021-.123-.113-.063-.204 0 .054-.171.179-.521-.102-.306-.08-.244-.033.492-.408.51-.133-.649.006-.154.204-.306-.067-.114-.472-.396-.204-.509-.045.05.088.236.102.204.281-.667-.103-.888.204-1.733-.327.501-.81 1.293-.815 2.038-.136.015-.307-.414-.407-.102.124.011.241.03.204.204-.629-.335-.005-1.14.204-1.427-.114-.021-.159-.112-.204-.204.547-.142.131-1.533.305-2.139-.269 1.05-.466 1.365-.612 2.139-.291-.937.475-1.541 0-2.343-.262-.124.312.872-.204.509.246.359-.328.236 0 .815-.444.074-.487.866-.611 1.222-1.051-1.202.391-2.088-.204-3.057-.149.294-.084.393-.102.611-.182.142-.289-.651-.509-.407.046.74-.407 1.948-.611 2.242-.19-.014-.341-.067-.408-.204.19-.098.341.305.408 0-.094-.109.089-.6-.204-.51.135-.001.093-.179.204-.204-.074.167.202.444.204.204-.129-.294-.031-.595-.306-.917.147.114.249.11.306-.101.085-.234-.392-1.156.102-.612.122-.357.063-1.451.305-1.325-.267-.94-.577-.663-.815-.306.038-.056-.095 1.024-.306.815-.022.193.115.225.102.408-.292-.148-.119.238-.204.509-.007.023-.604.794-.305 1.019-.349.147-.6.495-.306.815-.18-.071-.316-.113-.408 0 .186.164-.072.322.204.509-.62.007-.071.181-.611.408-1.723-1.839-3.765-2.919-5.91-3.261-.071-.011-.679.079-1.019 0-.776-.181-1.467-.602-2.14-.815-9.989-3.172-20.99.988-27.718 6.42-.159.129-.621.334-.713.51.037-.072-.513.454-.815.714-1.839 1.575-4.122 3.511-5.605 5.197-2.159 2.456-3.765 5.128-5.4 8.05-.089.157-.175.673-.306.917-4.186 7.82-7.675 16.471-8.763 26.088-.065.571.006 1.237-.102 1.835-.208 1.156-.78 2.141-1.223 3.159-1.383 3.175-3.12 7.051-3.872 10.292-.155.669-.053 1.423-.306 1.936-.16.325.039-.135 0 .204-.285 2.465-1.131 5.539-1.019 7.643-2.299-9.494-2.773-18.195-4.076-28.329-.61-4.741-1.277-13.121-6.624-13.859-1.542-.212-2.712.272-3.872.917-4.101 2.283-5.224 8.13-6.827 12.942-.142-1.793-.064-8.223-3.159-7.134-1.437.506-2.206 2.46-2.446 4.382-.424 3.406-.11 7.424 0 10.7.426 12.667 1.258 24.602 1.427 36.277-3.287-7.988-5.765-15.56-7.133-23.539-1.101-6.426-1.577-13.13-2.038-19.464-.231-3.169-.375-6.835-2.344-9.477-2.01-1.675-4.547-2.451-7.337-.815-.604.354-.988.812-1.325.815-1.68 2.122-2.14 5.844-2.14 8.763 0 2.347.211 5.42.51 8.662.883 9.614 2.649 19.139 6.114 28.635 2.992 8.199 6.298 15.851 12.024 21.094 1.692 1.549 3.203 2.975 5.197 3.261 2.19.314 4.876-.621 6.114-2.446 2.212-3.26 1.668-11.03 1.427-16.508-.318-7.204-.284-15.117.204-21.807.607-8.326 1.354-16.597 4.178-24.049.652 3.339 2.061 7.665 2.548 11.413.607 4.673 1.229 11.849 2.649 17.222 1.06 4.009 1.308 7.508 2.548 11.311.82 2.518 2.504 6.87 5.604 7.133 3.435.292 3.773-3.14 4.076-6.318.67-7.014-.16-10.585 1.121-15.999.98 6.783 2.544 14.58 5.604 21.298 2.499 5.485 6.56 11.101 10.7 15.286 3.493 3.53 7.78 6.527 12.228 8.763 3.152 1.585 7.141 2.667 11.515 2.038 9.611-1.381 13.278-10.88 17.018-18.648.991-2.058 1.893-4.675 2.853-7.031 1.393-3.419 3.207-6.751 4.586-10.19 1.303-3.251 2.508-6.421 3.872-9.477 4.208 9.772 17.482 13.608 28.533 10.292 3.575-1.163 7.523-2.835 10.496-4.484 3.784-2.234 7.072-5.906 9.884-9.885 3.797-5.372 7.302-9.567 10.802-14.979.235-.363.474-.813.612-1.121 1.399-3.136-2.803-5.633-5.001-3.157zm-40.456-1.325c2.28-3.018 5.509-5.988 9.884-6.013-1.221 3.386-3.884 5.917-6.318 8.357-1.652 1.656-3.178 3.102-5.605 4.076-.808-.155-1.663.139-1.936.815.744-2.598 2.391-5.138 3.975-7.235zm-6.216-51.766c.017.42-.456.191-.204.611h-.305c.114.125.089.209-.102.204.141-.334.265-.686.611-.815zm-.713.917c.019-.087-.04-.096-.102-.102.057-.295.159.156.306.102-.209.097-.361.251-.407.509-.541-.161.023-.139.203-.509zm.204 1.834c.054.147-.397.249-.102.305-.019.116-.102.056-.102 0-.192.25-.422.462-.509.815-.573.526.34-.989.713-1.12zm-15.286 31.081c-.036.026-.181-.733.102.204-.054.156-.106.006-.102-.102-.186.296-.24.023-.407 0-.146-.15.208.04.407-.102zm-21.094-13.655c.134-.025.528-.227.714.102.142-.036.009-.179-.102-.204.025-.11.202-.069.204-.204.091.046.182.09.204.204.295.114-.156.11-.102-.101-.128.025-.103.202 0 .204-.297.306-1.193.47-1.528.407.019-.116.102-.056.102 0 .14-.297.62-.138.508-.408zM90.077 58.085c-5.863 2.51-11.832 6.633-14.368 11.311-.485-4.044-.993-7.177-2.446-10.598-.042-.099.262-.287-.102-.102-2.438-5.147-8.846-3.713-9.885 1.019-.376 1.713.835 6.339 1.427 9.375.658 3.374.889 5.743 1.63 8.661 3.045 11.983 6.599 24.239 10.904 35.361 1.593 4.116 3.195 8.368 5.197 12.33.671 1.329 1.369 3.095 2.038 3.771 1.034 1.044 2.64.957 3.465.407 1.197-.798 1.1-1.767 1.019-3.77-.016-.399.163-.867.102-1.223-.113-.662-.523-1.393-.713-2.14-.199-.779-.414-1.591-.611-2.344-2.191-8.347-3.984-17.263-6.42-25.068-.241-.771-.326-1.6-.509-2.446-.153-.705-.586-1.372-.713-2.038-.185-.967-.125-1.944-.102-3.057.104-4.997 1.312-9.455 3.363-14.267.954-2.238 2.154-4.293 3.261-6.215 1.038-1.803 2.437-3.963 4.178-5.299.857-.658 1.436-.809 2.65-1.733.174-.539.628-1.513.611-1.63-.293-2.032-2.681-.86-3.976-.305z"
  ></path>
  <path
    d="M45.953 112.398c-2.324-11.619-4.489-25.015-5.808-38.723 7.636-6.508 15.579-13.992 24.966-20.482 2.194-1.517 4.616-2.87 7.031-4.382 2.317-1.451 4.663-2.968 7.133-4.28 2.392-1.271 5.004-2.511 7.439-3.974 1.074-.645 2.085-1.485 3.465-2.242.755-.415 3.152-1.166 3.363-1.936.102-.374-.158-.986-.815-1.121-.38-.078-1.979 1.007-2.65 1.325-1.295.613-2.549.682-2.955 1.121-4.505 1.283-9.61 4.07-14.776 6.522-5.216 2.476-10.361 4.646-14.98 6.827 3.479-2.613 7.389-5.01 11.515-6.827 4.345-1.915 8.814-3.356 13.247-4.993-3.856.594-7.636 1.81-11.311 3.26-3.774 1.491-7.635 2.806-11.209 4.688-6.969 3.669-14.663 7.538-20.89 11.719-.062-.006-.121-.015-.102-.102-.357-3.057-.633-7.078-1.019-9.884 6.421-4.566 13.473-8.776 21.196-12.331 3.818-1.756 7.596-3.657 11.617-4.993 3.172-1.053 6.613-1.799 9.579-2.955 1.006-.392 1.924-.94 2.955-1.325 3.264-1.217 6.882-1.996 8.356-4.789.104-1.052-.23-2.29-1.019-2.854-1.82-1.298-3.564.357-5.095 1.223-.964.545-2.159.99-3.363 1.223-1.372.265-3.893-.371-5.401-.509-2.329-.215-3.971-.37-6.624-.51 1.131-.485 2.277-1.191 3.465-1.835 1.138-.616 2.759-.767 3.465-1.63-2.002-.169-3.855.767-5.808 1.223-4.077.951-7.96 2.054-11.617 3.465-2.635 1.017-5.414 2.877-7.846 2.038-1.814.429-2.58.297-4.586.204-2.879-.134-5.517.047-8.152.204-2.488.148-4.896-.217-7.235-.204-1.205.007-2.39.299-3.567.305-.616.003-1.062-.17-1.63-.102-1.161.139-2.418.247-3.465.408-.625.096-1.133.434-1.834.611-.665.167-1.1.113-1.835.305-1.876.492-3.865 1.464-5.706 2.242-.566.239-1.206.292-1.63.509-.531.273-1.708 1.25-1.834 1.325-.496.294-1.263.427-1.732.917a.513.513 0 0 1 .305.306c-.739-.348-1.186.206-1.732.611-1.458 1.083-2.906 2.359-3.77 3.669-1.075.767-2.006-.121-2.853.611-.915 1.847 1.559 2.614 2.751 2.446 1.099-.156 1.528-1.543 2.344-1.936-.714.001-.802-.625-1.019-1.121.149-.178 1.036-.907.611-1.325.18.089.297.322.51.101.898-1.044 1.087-1.377 2.344-2.038-.393-.646.799-.154.204-.815.333.382.341-.074.713.102.259-.218.511-.458.917-.713.764-.48.86-.345 1.529-.714.96-.53 1.588-1.14 2.344-1.427 1.272-.482 2.755-.732 3.974-1.325.048-.023.198-.304.204-.305.121-.041.357.141.51.102.154-.039.412-.377.51-.407.633-.199 1.785-.402 2.446-.407.074-.279-.202-.205-.204-.408.241.032.19.354.51.306.902-.027 1.481-.559 2.344-.713.676-.121 1.867.217 2.446-.306 1.373.396 2.675-.271 4.28.306 1.525-.207 3.033.397 4.789.306.642-.034 1.331-.388 2.038-.407-.024.001-.106.179 0 .204.735.169 1.587.014 2.14-.204 1.027.153 2.275-.257 3.363-.306 2.472-.111 5.044-.114 7.846.408.424-.241.078-.319.611-.102-2.888 1.661-6.217 2.692-9.375 3.974-4.768 1.936-8.989 4.331-12.636 6.726-1.315.864-2.611 1.631-3.872 2.446-3.063 1.978-5.809 4.099-8.254 6.012-1.495 1.17-2.684 2.125-3.974 3.261-1.7 1.496-3.916 3.453-4.789 5.299-.154.325-.056.817-.204 1.121-.274.564-.935 1.124-1.325 1.631-1.295 1.685-2.408 3.405-2.649 5.808-.49 4.871 4.029 8.633 9.171 7.133 5.05-2.424 8.829-7.001 13.247-10.394.116 2.859 1.087 6.305 1.121 8.968-2.84 1.779-6.444 5.222-9.273 7.439-.37.289-.917.362-1.223.612-.274.224-.573.698-.815.917-.231.209-.222.376-.306.509-1.789 2.829-.69 7.417 2.955 8.56 3.69 1.157 6.789-1.317 9.885-2.956 1.299 11.8 4.261 23.753 7.541 35.666 1.67 6.067 3.431 11.726 5.095 17.833 1.006 3.693 2.785 9.155 3.77 13.349.48 2.041.806 4.336 2.344 5.299 2.667 1.67 5.015-.671 5.197-3.159.244-3.332-.247-7.129-.815-10.496-1.609-9.509-4.031-18.299-6.119-28.738zM31.075 54.11c.255.017.319-.157.408-.306.373.899.368 3.213.509 5.095.128 1.695.664 3.703.408 4.586-.218.752-1.248 1.019-1.732 1.529.102-3.839-.029-7.595.407-10.904zm.612 26.291c.795-.452 1.312-1.178 2.038-1.427.767 9.025 1.725 16.762 3.057 24.966-2.074-7.317-3.617-14.931-5.095-23.539z"
  ></path>
</svg>
