<svg id="LogoTetchi" xmlns="http://www.w3.org/2000/svg" viewBox="0 0 280 94">
  <path
    d="M7.022 47.811c-.259.165-.52.33-.782.493l10 8.048c4.038-2.799 8.007-6.044 11.75-9.524 4.041 2.59 11.61 7.801 17.61 12.075.254-.248.504-.495.752-.743-6.24-4.608-12.576-8.928-17.472-12l.466-.476-.215.068c4.798-4.579 9.186-9.515 12.821-14.344h21.851c.578-1.544 1.04-3.009 1.365-4.352H37.712C30.992 35.984 22.064 45.2 12.368 51.92l-5.346-4.109Z"
  ></path>
  <path
    d="M15.92 83.17c-.186.059-.373.117-.56.174l9.88 10.008c14.976-5.664 27.176-14.136 35.624-23.064 2.393 1.926 4.199 3.973 5.83 5.821 1.05 1.192 2.03 2.302 3.046 3.243l12-13.5c-1.62-1.341-3.852-2.823-6.249-4.415-1.72-1.142-3.526-2.341-5.251-3.585 6.816-9.6 10.784-17.804 13.376-25.58a45.162 45.162 0 0 1 3.168-6.816l-3.544-5.104c-.34.108-.869.184-1.532.236l.836.516a45.162 45.162 0 0 0-3.168 6.816c-2.592 7.776-7.392 18.048-14.208 27.648 4.128 2.976 7.872 5.76 10.656 8.064l-9.12 10.848c-2.592-2.4-6.144-5.376-10.08-8.544-8.448 8.928-19.392 17.088-34.368 22.752l-6.337-5.517Zm35.695-67.058c1.054-1.785 2.272-3.736 3.489-5.44 0 0-2.364-4.82-3.864-5.32-1.026-.342-2.525-.333-4.054-.174l3.678 1.142c-2.4 3.36-4.8 7.68-5.952 9.792h6.703Zm51.695 18.333-.461.9 4.671 3.455c4.128-.384 9.408-.384 12.672-.384h7.699c.274-1.412.517-2.862.733-4.352h-12.672c-3.256 0-8.519 0-12.642.381Zm1.802 47.177c-.224.13-.445.255-.664.378l10.792 9.352c17.184-12.192 26.648-27.592 30.2-52.936h17.299c.041-1.564.061-3.03.061-4.352h-21.6c-3.552 25.344-12.672 40.416-29.856 52.608l-6.232-5.05Zm36.221 2.442-.464 1.347 4.763 3.501c4.608.384 10.368.768 15.84.768 6.624 0 10.272-2.496 12.384-7.392 4.128-9.792 5.28-36.576 5.664-46.944 0-1.056.384-3.552.672-5.088l-3.46-4.978-1.483.287.703.339c-.288 1.536-.672 4.032-.672 5.088-.384 10.368-1.536 37.152-5.664 46.944-2.112 4.896-5.76 7.392-12.384 7.392-5.472 0-11.232-.384-15.84-.768l-.059-.496Zm5.491-61.52c.058-1.407.105-2.836.152-4.288.096-2.304.288-6.336.576-8.544l-3.316-4.72-.929.407c-.285 2.216-.476 6.214-.571 8.505-.096 2.976-.192 5.856-.384 8.64h4.472Zm62.824-1.606v.166c2.784-.192 6.912-.288 9.984-.288H256.4c3.456 0 7.968.096 10.56.288V8.72c-.52.074-1.116.138-1.76.192.599-.654 1.231-1.122 1.917-1.165 1.115-.07 4.083 5.325 4.083 5.325v12.384c-2.592-.192-7.104-.288-10.56-.288h-36.768c-3.072 0-7.2.096-9.984.288l-4.777-3.522.537-.996Zm64.674 15.189.702.433c-.672 1.248-1.44 2.976-1.824 4.032-2.88 9.312-7.008 18.624-14.208 26.592-9.696 10.752-21.984 17.28-34.272 20.736l-4.999-5.706c-.332.074-.665.146-.999.215l8.481 9.9c12.288-3.455 26.333-10.041 36.029-20.793 7.2-7.968 11.328-17.28 14.208-26.592.384-1.056 1.152-2.784 1.824-4.032l-3.27-4.556-1.672-.23Zm-73.375 8.005-.477.941 4.586 3.423c4.032-.384 8.832-.48 11.136-.48h40.482a45.577 45.577 0 0 0 1.646-4.352h-46.368c-2.279 0-7.001.094-11.005.468Z"
  ></path>
  <path
    fill="none"
    stroke="currentColor"
    stroke-linecap="round"
    stroke-linejoin="round"
    stroke-width="2"
    d="M50.864 6.32 36.944 2c-.864 3.264-2.88 7.68-4.416 9.984C27.728 20.336 18.8 33.488 2 43.952l10.368 7.968c9.696-6.72 18.624-15.936 25.344-24.864h27.456c-1.44 5.952-5.568 14.304-10.56 21.216-6.048-4.032-12.096-7.968-17.184-10.848L28.88 46.16c4.896 3.072 11.232 7.392 17.472 12-7.968 7.968-18.624 15.744-35.232 20.832l11.136 9.696c14.976-5.664 25.92-13.824 34.368-22.752 3.936 3.168 7.488 6.144 10.08 8.544l9.12-10.848c-2.784-2.304-6.528-5.088-10.656-8.064 6.816-9.6 11.616-19.872 14.208-27.648a45.162 45.162 0 0 1 3.168-6.816l-9.792-6.048c-2.112.672-5.376 1.056-8.352 1.056H44.912C46.064 14 48.464 9.68 50.864 6.32Zm92.448-.96H129.2c.384 2.304.672 6.72.672 8.832 0 2.88-.096 5.664-.192 8.352h-13.728c-3.648 0-8.64-.288-12.672-.672v12.576c4.128-.384 9.408-.384 12.672-.384h12.672c-2.112 14.592-6.912 25.344-15.84 34.176-3.84 3.936-8.64 7.2-12.576 9.408l11.136 9.024c17.184-12.192 26.304-27.264 29.856-52.608h21.6c0 10.368-1.248 29.568-4.032 35.616-1.056 2.304-2.4 3.36-5.472 3.36-3.744 0-8.736-.48-13.44-1.344l1.536 12.864c4.608.384 10.368.768 15.84.768 6.624 0 10.272-2.496 12.384-7.392 4.128-9.792 5.28-36.576 5.664-46.944 0-1.056.384-3.552.672-5.088l-8.352-4.032c-2.304.384-4.8.672-7.2.672h-18.048c.192-2.784.288-5.664.384-8.64.096-2.304.288-6.336.576-8.544Zm66.336 3.36v12.384c2.784-.192 6.912-.288 9.984-.288H256.4c3.456 0 7.968.096 10.56.288V8.72c-2.688.384-7.392.48-10.368.48h-36.96c-3.264 0-7.296-.096-9.984-.48Zm65.376 27.84-8.544-5.28c-1.344.576-3.936.96-7.008.96h-47.52c-2.976 0-7.104-.288-11.136-.576v12.48c4.032-.384 8.832-.48 11.136-.48h46.368c-1.728 5.376-4.704 11.328-9.888 16.608-7.296 7.488-18.816 13.824-33.216 16.8l9.504 10.848c12.288-3.456 24.576-9.984 34.272-20.736 7.2-7.968 11.328-17.28 14.208-26.592.384-1.056 1.152-2.784 1.824-4.032Z"
  ></path>
</svg>
