<svg
  id="LogoPreservationSociety"
  xmlns="http://www.w3.org/2000/svg"
  viewBox="0 0 262 280"
>
  <path
    d="M255.564 267.486a5.771 5.771 0 0 0 0 11.54 5.77 5.77 0 0 0 0-11.54Zm-11.818-17.439c-1.545-2.291-3.504-3.968-5.878-5.031-2.37-1.062-5.039-1.592-7.999-1.592-4.985 0-9.037 1.57-12.163 4.713-3.122 3.147-4.684 7.664-4.684 13.556 0 6.286 1.731 10.826 5.189 13.614 3.461 2.79 7.455 4.187 11.981 4.187 5.483 0 9.747-1.653 12.795-4.963 1.959-2.079 3.058-4.128 3.299-6.146h-9.082c-.528.998-1.138 1.778-1.83 2.34-1.266 1.039-2.91 1.561-4.936 1.561-1.912 0-3.546-.427-4.905-1.281-2.232-1.372-3.419-3.763-3.556-7.177h24.77c.045-2.937-.054-5.188-.292-6.75-.413-2.667-1.315-5.011-2.709-7.031Zm-21.548 7.914c.32-2.214 1.109-3.969 2.368-5.263 1.254-1.296 3.024-1.943 5.306-1.943 2.099 0 3.856.611 5.275 1.833 1.418 1.222 2.207 3.014 2.369 5.373h-15.318Zm-16.777-13.633-7.238 25.087-7.083-25.087h-9.989l12.2 34.01h9.377l12.282-34.01h-9.549Zm-25.988-.812c-2.663 0-4.826.697-6.49 2.09-1.019.832-2.216 2.383-3.589 4.65v-5.928h-8.487v34.01h8.955v-16.256c0-2.723.343-4.744 1.03-6.053 1.228-2.331 3.63-3.496 7.208-3.496.27 0 .624.011 1.062.033.435.02.935.061 1.497.126v-9.113a38.955 38.955 0 0 1-.765-.045 3.874 3.874 0 0 0-.421-.018Zm-23.771 6.531c-1.543-2.291-3.503-3.968-5.877-5.031-2.372-1.062-5.037-1.592-7.998-1.592-4.985 0-9.039 1.57-12.162 4.713-3.124 3.147-4.686 7.664-4.686 13.556 0 6.286 1.73 10.826 5.19 13.614 3.461 2.79 7.455 4.187 11.981 4.187 5.485 0 9.749-1.653 12.796-4.963 1.958-2.079 3.057-4.128 3.298-6.146h-9.081c-.529.998-1.14 1.778-1.83 2.34-1.266 1.039-2.912 1.561-4.937 1.561-1.911 0-3.546-.427-4.904-1.281-2.233-1.372-3.419-3.763-3.557-7.177h24.771c.044-2.937-.053-5.188-.293-6.75-.413-2.667-1.316-5.011-2.711-7.031Zm-21.549 7.914c.324-2.214 1.113-3.969 2.369-5.263 1.257-1.296 3.026-1.943 5.309-1.943 2.098 0 3.857.611 5.274 1.833 1.418 1.222 2.208 3.014 2.368 5.373h-15.32Zm-21.427-.091c-5.314-1.166-8.41-1.987-9.286-2.465-.876-.457-1.313-1.197-1.313-2.217 0-.81.411-1.518 1.236-2.12.823-.604 2.206-.906 4.145-.906 2.356 0 4.026.602 5.006 1.811.521.666.846 1.57.971 2.715h8.893c-.396-4.161-1.935-7.09-4.613-8.785-2.679-1.696-6.145-2.542-10.397-2.542-4.482 0-7.959 1.128-10.43 3.384-2.469 2.259-3.706 4.955-3.706 8.098 0 2.664.792 4.701 2.373 6.115 1.58 1.437 4.304 2.633 8.168 3.591 5.369 1.266 8.47 2.162 9.303 2.681.833.522 1.251 1.281 1.251 2.277 0 1.04-.518 1.821-1.552 2.34-1.036.522-2.431.782-4.186.782-2.989 0-5.038-.592-6.145-1.778-.628-.667-1.035-1.791-1.223-3.371h-9.018c0 3.497 1.276 6.371 3.83 8.629 2.553 2.256 6.509 3.386 11.866 3.386 5.253 0 9.133-1.067 11.646-3.198 2.511-2.132 3.767-4.886 3.767-8.254 0-2.558-.874-4.692-2.621-6.396-1.767-1.688-4.423-2.947-7.965-3.777Zm-25.166-7.823c-1.546-2.291-3.504-3.968-5.877-5.031-2.372-1.062-5.039-1.592-8-1.592-4.984 0-9.04 1.57-12.162 4.713-3.123 3.147-4.685 7.664-4.685 13.556 0 6.286 1.73 10.826 5.19 13.614 3.46 2.79 7.453 4.187 11.98 4.187 5.483 0 9.75-1.653 12.796-4.963 1.957-2.079 3.057-4.128 3.295-6.146h-9.08c-.527.998-1.138 1.778-1.829 2.34-1.266 1.039-2.911 1.561-4.937 1.561-1.91 0-3.545-.427-4.903-1.281-2.234-1.372-3.42-3.763-3.558-7.177h24.771c.045-2.937-.053-5.188-.292-6.75-.412-2.667-1.316-5.011-2.709-7.031Zm-21.55 7.914c.323-2.214 1.112-3.969 2.37-5.263 1.256-1.296 3.025-1.943 5.307-1.943 2.1 0 3.857.611 5.274 1.833 1.418 1.222 2.207 3.014 2.37 5.373H65.97Zm-9.078-14.383c-.395-.021-.65-.036-.764-.045a4.196 4.196 0 0 0-.422-.017c-2.663 0-4.826.697-6.49 2.09-1.02.832-2.215 2.383-3.588 4.65v-5.928H37.14v34.01h8.956v-16.256c0-2.723.344-4.744 1.03-6.053 1.227-2.331 3.63-3.496 7.208-3.496.27 0 .624.011 1.061.033.436.02.937.061 1.498.126v-9.114Zm-26.254-7.677c-2.707-2.371-6.338-3.557-10.89-3.557H0v45.993h9.547V261.8h9.577c4.997 0 8.842-1.124 11.534-3.372 2.692-2.244 4.04-6.085 4.04-11.512 0-4.971-1.355-8.643-4.06-11.015Zm-7.314 16.321c-1.216 1.102-2.922 1.652-5.116 1.652h-8.66v-13.541h8.66c2.194 0 3.9.51 5.116 1.528 1.217 1.021 1.825 2.727 1.825 5.119s-.608 4.14-1.825 5.242Zm-4.327-50.966H228.45c5.52 0 9.995-4.473 9.995-9.995a9.994 9.994 0 0 0-9.995-9.995H42.358a3.554 3.554 0 0 1-2.921-1.647 3.565 3.565 0 0 1-.179-3.459l81.134-139.886h.006a3.558 3.558 0 0 1 6.077-.248l.153.228 29.861 50.623-7.274 12.303a3.567 3.567 0 0 1-2.965 1.829 3.565 3.565 0 0 1-3.057-1.528l-10.448-16.917a10.026 10.026 0 0 0-8.731-4.455 10.003 10.003 0 0 0-8.342 5.151l-36.91 63.898a9.996 9.996 0 0 0 8.748 14.834h118.329a9.991 9.991 0 0 0 8.668-5.021 9.992 9.992 0 0 0-.039-10.017L132.074 5.955A9.993 9.993 0 0 0 123.444 1h-.024a10.008 10.008 0 0 0-8.633 4.998L10.34 186.264a9.988 9.988 0 0 0 0 9.994 10 10 0 0 0 8.657 4.998Zm148.858-91.438a3.57 3.57 0 0 1 3.111 1.586l.18.247 14.682 25.918a3.54 3.54 0 0 1-.411 2.786 3.563 3.563 0 0 1-2.923 1.647h-71.331a3.561 3.561 0 0 1-2.922-1.647 3.564 3.564 0 0 1-.19-3.429l14.081-25.361a3.55 3.55 0 0 1 2.904-1.747 3.562 3.562 0 0 1 3.061 1.531l10.439 17.646a9.988 9.988 0 0 0 8.899 4.445 9.995 9.995 0 0 0 8.331-5.44l9.139-16.376a3.56 3.56 0 0 1 2.95-1.806Z" />
</svg>
