<svg
  id="LogoPreservationSociety"
  xmlns="http://www.w3.org/2000/svg"
  viewBox="0 0 280 300"
>
  <path
    d="M273.819 286.592a6.184 6.184 0 0 0-6.183 6.183 6.185 6.185 0 0 0 6.183 6.181 6.184 6.184 0 0 0 6.181-6.181 6.184 6.184 0 0 0-6.181-6.183Zm-12.663-18.684c-1.655-2.455-3.754-4.252-6.297-5.391-2.54-1.138-5.399-1.706-8.571-1.706-5.341 0-9.682 1.683-13.032 5.05-3.345 3.372-5.018 8.212-5.018 14.524 0 6.735 1.855 11.6 5.56 14.587 3.708 2.989 7.987 4.486 12.836 4.486 5.875 0 10.444-1.771 13.709-5.318 2.099-2.227 3.277-4.423 3.535-6.585h-9.731c-.566 1.07-1.219 1.905-1.961 2.507-1.356 1.114-3.117 1.673-5.288 1.673-2.049 0-3.799-.457-5.255-1.372-2.392-1.47-3.664-4.032-3.811-7.69h26.54c.048-3.147-.058-5.559-.313-7.232-.443-2.858-1.409-5.369-2.903-7.533Zm-23.087 8.479c.343-2.372 1.189-4.253 2.537-5.639 1.344-1.389 3.24-2.082 5.685-2.082 2.249 0 4.132.655 5.652 1.964 1.519 1.309 2.365 3.229 2.538 5.757h-16.412Zm-17.975-14.607-7.755 26.879-7.589-26.879h-10.702l13.071 36.439h10.047l13.159-36.439h-10.231Zm-27.844-.87c-2.854 0-5.171.747-6.954 2.239-1.092.892-2.374 2.553-3.845 4.982v-6.351h-9.094v36.439h9.595v-17.417c0-2.917.368-5.083 1.104-6.485 1.315-2.498 3.889-3.746 7.723-3.746.289 0 .668.012 1.137.035.467.022 1.002.066 1.604.135v-9.764a36.032 36.032 0 0 1-.819-.048 4.135 4.135 0 0 0-.451-.019Zm-25.469 6.998c-1.654-2.455-3.754-4.252-6.297-5.391-2.542-1.138-5.397-1.706-8.569-1.706-5.341 0-9.685 1.683-13.031 5.05-3.347 3.372-5.021 8.212-5.021 14.524 0 6.735 1.854 11.6 5.561 14.587 3.708 2.989 7.987 4.486 12.837 4.486 5.876 0 10.445-1.771 13.71-5.318 2.098-2.227 3.275-4.423 3.533-6.585h-9.729c-.567 1.07-1.222 1.905-1.961 2.507-1.357 1.114-3.12 1.673-5.29 1.673-2.047 0-3.799-.457-5.254-1.372-2.393-1.47-3.663-4.032-3.811-7.69h26.54c.047-3.147-.057-5.559-.314-7.232-.442-2.858-1.41-5.369-2.904-7.533Zm-23.088 8.479c.347-2.372 1.192-4.253 2.538-5.639 1.346-1.389 3.242-2.082 5.688-2.082 2.248 0 4.132.655 5.651 1.964 1.519 1.309 2.365 3.229 2.537 5.757h-16.414Zm-22.958-.098c-5.694-1.249-9.011-2.129-9.949-2.641-.939-.489-1.407-1.282-1.407-2.375 0-.868.44-1.627 1.324-2.272.882-.647 2.364-.97 4.441-.97 2.525 0 4.314.645 5.364 1.94.558.714.906 1.682 1.04 2.909h9.528c-.424-4.458-2.073-7.596-4.942-9.413-2.87-1.817-6.584-2.723-11.14-2.723-4.802 0-8.527 1.208-11.174 3.626-2.646 2.42-3.971 5.309-3.971 8.676 0 2.854.848 5.037 2.542 6.552 1.693 1.539 4.611 2.821 8.751 3.847 5.753 1.357 9.075 2.317 9.968 2.873.893.559 1.34 1.372 1.34 2.44 0 1.114-.555 1.951-1.663 2.507-1.109.559-2.604.838-4.485.838-3.202 0-5.397-.635-6.583-1.906-.673-.714-1.109-1.918-1.311-3.611h-9.662c0 3.746 1.367 6.826 4.104 9.245 2.735 2.417 6.974 3.628 12.713 3.628 5.628 0 9.786-1.143 12.478-3.426 2.69-2.285 4.036-5.235 4.036-8.844 0-2.741-.936-5.027-2.808-6.853-1.893-1.808-4.739-3.157-8.534-4.047Zm-26.963-8.381c-1.657-2.455-3.755-4.252-6.297-5.391-2.542-1.138-5.399-1.706-8.571-1.706-5.341 0-9.686 1.683-13.031 5.05-3.347 3.372-5.02 8.212-5.02 14.524 0 6.735 1.853 11.6 5.56 14.587 3.707 2.989 7.986 4.486 12.836 4.486 5.875 0 10.446-1.771 13.71-5.318 2.097-2.227 3.276-4.423 3.531-6.585h-9.728c-.566 1.07-1.22 1.905-1.96 2.507-1.357 1.114-3.12 1.673-5.29 1.673-2.047 0-3.798-.457-5.253-1.372-2.394-1.47-3.664-4.032-3.812-7.69h26.54c.048-3.147-.057-5.559-.313-7.232-.442-2.858-1.41-5.369-2.902-7.533Zm-23.09 8.479c.346-2.372 1.192-4.253 2.539-5.639 1.346-1.389 3.241-2.082 5.687-2.082 2.249 0 4.132.655 5.65 1.964 1.52 1.309 2.365 3.229 2.539 5.757H70.682Zm-9.726-15.411a36.821 36.821 0 0 1-.819-.048 4.46 4.46 0 0 0-.452-.018c-2.853 0-5.171.747-6.954 2.239-1.092.892-2.373 2.553-3.844 4.982v-6.351h-9.094v36.439h9.596v-17.417c0-2.917.368-5.083 1.103-6.485 1.315-2.498 3.89-3.746 7.723-3.746.289 0 .669.012 1.137.035.467.022 1.004.066 1.605.135v-9.765h-.001Zm-28.13-8.225c-2.9-2.54-6.79-3.811-11.667-3.811H0v49.278h10.229V280.5H20.49c5.354 0 9.474-1.204 12.358-3.613 2.884-2.404 4.328-6.519 4.328-12.334 0-5.326-1.451-9.26-4.35-11.802Zm-7.836 17.487c-1.303 1.181-3.131 1.77-5.481 1.77H10.23V257.5h9.279c2.35 0 4.178.546 5.481 1.637 1.304 1.094 1.955 2.922 1.955 5.484 0 2.563-.651 4.436-1.955 5.617ZM131.234.542c3.808 0 7.325 2.021 9.247 5.309l88.279 151.07a10.708 10.708 0 0 1-9.246 16.112H92.733a10.71 10.71 0 0 1-9.373-15.893l39.547-68.462a10.718 10.718 0 0 1 8.938-5.519 10.741 10.741 0 0 1 9.354 4.773l11.195 18.125a3.818 3.818 0 0 0 3.275 1.637 3.82 3.82 0 0 0 3.177-1.959l7.793-13.182-31.993-54.239-.164-.244a3.813 3.813 0 0 0-6.512.266h-.006L41.035 188.213a3.821 3.821 0 0 0 .191 3.707 3.81 3.81 0 0 0 3.13 1.764h199.385c5.915 0 10.708 4.794 10.708 10.709 0 5.916-4.794 10.709-10.708 10.709H19.326a10.715 10.715 0 0 1-9.275-5.355 10.702 10.702 0 0 1 0-10.708L121.959 5.897a10.722 10.722 0 0 1 9.249-5.355h.026Zm63.268 151.074a3.82 3.82 0 0 0 3.132-1.765 3.793 3.793 0 0 0 .44-2.985l-15.731-27.769-.193-.265a3.81 3.81 0 0 0-6.493.236l-9.792 17.545a10.708 10.708 0 0 1-8.926 5.829 10.7 10.7 0 0 1-9.535-4.763l-11.185-18.906a3.813 3.813 0 0 0-3.279-1.64 3.804 3.804 0 0 0-3.112 1.872l-15.086 27.172a3.819 3.819 0 0 0 .203 3.674 3.817 3.817 0 0 0 3.131 1.765h76.426Z"
  ></path>
</svg>
