<svg id="logo_preservation-society" version="1.1" xmlns="http://www.w3.org/2000/svg" xmlns:xlink="https://www.w3.org/1999/xlink" viewBox="0 0 280 300">
  <path d="M273.819,286.592c-3.413,0 -6.183,2.768 -6.183,6.183c0,3.411 2.77,6.181 6.183,6.181c3.411,0 6.181,-2.77 6.181,-6.181c0,-3.415 -2.77,-6.183 -6.181,-6.183Z" />
  <path d="M261.156,267.908c-1.655,-2.455 -3.754,-4.252 -6.297,-5.391c-2.54,-1.138 -5.399,-1.706 -8.571,-1.706c-5.341,0 -9.682,1.683 -13.032,5.05c-3.345,3.372 -5.018,8.212 -5.018,14.524c0,6.735 1.855,11.6 5.56,14.587c3.708,2.989 7.987,4.486 12.836,4.486c5.875,0 10.444,-1.771 13.709,-5.318c2.099,-2.227 3.277,-4.423 3.535,-6.585l-9.731,0c-0.566,1.07 -1.219,1.905 -1.961,2.507c-1.356,1.114 -3.117,1.673 -5.288,1.673c-2.049,0 -3.799,-0.457 -5.255,-1.372c-2.392,-1.47 -3.664,-4.032 -3.811,-7.69l26.54,0c0.048,-3.147 -0.058,-5.559 -0.313,-7.232c-0.443,-2.858 -1.409,-5.369 -2.903,-7.533Zm-23.087,8.479c0.343,-2.372 1.189,-4.253 2.537,-5.639c1.344,-1.389 3.24,-2.082 5.685,-2.082c2.249,0 4.132,0.655 5.652,1.964c1.519,1.309 2.365,3.229 2.538,5.757l-16.412,0Z" />
  <path d="M220.094,261.78l-7.755,26.879l-7.589,-26.879l-10.702,0l13.071,36.439l10.047,0l13.159,-36.439l-10.231,0Z" />
  <path d="M192.25,260.91c-2.854,0 -5.171,0.747 -6.954,2.239c-1.092,0.892 -2.374,2.553 -3.845,4.982l0,-6.351l-9.094,0l0,36.439l9.595,0l0,-17.417c0,-2.917 0.368,-5.083 1.104,-6.485c1.315,-2.498 3.889,-3.746 7.723,-3.746c0.289,0 0.668,0.012 1.137,0.035c0.467,0.022 1.002,0.066 1.604,0.135l0,-9.764c-0.424,-0.022 -0.698,-0.038 -0.819,-0.048c-0.123,-0.014 -0.273,-0.019 -0.451,-0.019Z" />
  <path d="M166.781,267.908c-1.654,-2.455 -3.754,-4.252 -6.297,-5.391c-2.542,-1.138 -5.397,-1.706 -8.569,-1.706c-5.341,0 -9.685,1.683 -13.031,5.05c-3.347,3.372 -5.021,8.212 -5.021,14.524c0,6.735 1.854,11.6 5.561,14.587c3.708,2.989 7.987,4.486 12.837,4.486c5.876,0 10.445,-1.771 13.71,-5.318c2.098,-2.227 3.275,-4.423 3.533,-6.585l-9.729,0c-0.567,1.07 -1.222,1.905 -1.961,2.507c-1.357,1.114 -3.12,1.673 -5.29,1.673c-2.047,0 -3.799,-0.457 -5.254,-1.372c-2.393,-1.47 -3.663,-4.032 -3.811,-7.69l26.54,0c0.047,-3.147 -0.057,-5.559 -0.314,-7.232c-0.442,-2.858 -1.41,-5.369 -2.904,-7.533Zm-23.088,8.479c0.347,-2.372 1.192,-4.253 2.538,-5.639c1.346,-1.389 3.242,-2.082 5.688,-2.082c2.248,0 4.132,0.655 5.651,1.964c1.519,1.309 2.365,3.229 2.537,5.757l-16.414,0Z" />
  <path d="M120.735,276.289c-5.694,-1.249 -9.011,-2.129 -9.949,-2.641c-0.939,-0.489 -1.407,-1.282 -1.407,-2.375c0,-0.868 0.44,-1.627 1.324,-2.272c0.882,-0.647 2.364,-0.97 4.441,-0.97c2.525,0 4.314,0.645 5.364,1.94c0.558,0.714 0.906,1.682 1.04,2.909l9.528,0c-0.424,-4.458 -2.073,-7.596 -4.942,-9.413c-2.87,-1.817 -6.584,-2.723 -11.14,-2.723c-4.802,0 -8.527,1.208 -11.174,3.626c-2.646,2.42 -3.971,5.309 -3.971,8.676c0,2.854 0.848,5.037 2.542,6.552c1.693,1.539 4.611,2.821 8.751,3.847c5.753,1.357 9.075,2.317 9.968,2.873c0.893,0.559 1.34,1.372 1.34,2.44c0,1.114 -0.555,1.951 -1.663,2.507c-1.109,0.559 -2.604,0.838 -4.485,0.838c-3.202,0 -5.397,-0.635 -6.583,-1.906c-0.673,-0.714 -1.109,-1.918 -1.311,-3.611l-9.662,0c0,3.746 1.367,6.826 4.104,9.245c2.735,2.417 6.974,3.628 12.713,3.628c5.628,0 9.786,-1.143 12.478,-3.426c2.69,-2.285 4.036,-5.235 4.036,-8.844c0,-2.741 -0.936,-5.027 -2.808,-6.853c-1.893,-1.808 -4.739,-3.157 -8.534,-4.047Z" />
  <path d="M93.772,267.908c-1.657,-2.455 -3.755,-4.252 -6.297,-5.391c-2.542,-1.138 -5.399,-1.706 -8.571,-1.706c-5.341,0 -9.686,1.683 -13.031,5.05c-3.347,3.372 -5.02,8.212 -5.02,14.524c0,6.735 1.853,11.6 5.56,14.587c3.707,2.989 7.986,4.486 12.836,4.486c5.875,0 10.446,-1.771 13.71,-5.318c2.097,-2.227 3.276,-4.423 3.531,-6.585l-9.728,0c-0.566,1.07 -1.22,1.905 -1.96,2.507c-1.357,1.114 -3.12,1.673 -5.29,1.673c-2.047,0 -3.798,-0.457 -5.253,-1.372c-2.394,-1.47 -3.664,-4.032 -3.812,-7.69l26.54,0c0.048,-3.147 -0.057,-5.559 -0.313,-7.232c-0.442,-2.858 -1.41,-5.369 -2.902,-7.533Zm-23.09,8.479c0.346,-2.372 1.192,-4.253 2.539,-5.639c1.346,-1.389 3.241,-2.082 5.687,-2.082c2.249,0 4.132,0.655 5.65,1.964c1.52,1.309 2.365,3.229 2.539,5.757l-16.415,0Z" />
  <path d="M60.956,260.976c-0.423,-0.022 -0.697,-0.038 -0.819,-0.048c-0.123,-0.013 -0.274,-0.018 -0.452,-0.018c-2.853,0 -5.171,0.747 -6.954,2.239c-1.092,0.892 -2.373,2.553 -3.844,4.982l0,-6.351l-9.094,0l0,36.439l9.596,0l0,-17.417c0,-2.917 0.368,-5.083 1.103,-6.485c1.315,-2.498 3.89,-3.746 7.723,-3.746c0.289,0 0.669,0.012 1.137,0.035c0.467,0.022 1.004,0.066 1.605,0.135l0,-9.765l-0.001,0Z" />
  <path d="M32.826,252.751c-2.9,-2.54 -6.79,-3.811 -11.667,-3.811l-21.159,0l0,49.278l10.229,0l0,-17.718l10.261,0c5.354,0 9.474,-1.204 12.358,-3.613c2.884,-2.404 4.328,-6.519 4.328,-12.334c0,-5.326 -1.451,-9.26 -4.35,-11.802Zm-7.836,17.487c-1.303,1.181 -3.131,1.77 -5.481,1.77l-9.279,0l0,-14.508l9.279,0c2.35,0 4.178,0.546 5.481,1.637c1.304,1.094 1.955,2.922 1.955,5.484c0,2.563 -0.651,4.436 -1.955,5.617Z" />
  <path d="M131.234,0.542c3.808,0 7.325,2.021 9.247,5.309l88.279,151.07c1.936,3.31 1.951,7.405 0.042,10.733c-1.907,3.327 -5.452,5.379 -9.288,5.379l-126.781,0c-3.793,0 -7.3,-2.004 -9.225,-5.269c-1.926,-3.267 -1.983,-7.304 -0.148,-10.624l39.547,-68.462c1.811,-3.275 5.2,-5.364 8.938,-5.519c3.725,-0.144 7.285,1.658 9.354,4.773l11.195,18.125c0.744,1.067 1.977,1.687 3.275,1.637c1.328,-0.055 2.531,-0.799 3.177,-1.959l7.793,-13.182l-31.993,-54.239l-0.164,-0.244c-0.736,-1.107 -2.003,-1.75 -3.329,-1.698c-1.333,0.055 -2.538,0.798 -3.183,1.964l-0.006,0l-86.929,149.877c-0.58,1.186 -0.51,2.586 0.191,3.707c0.682,1.078 1.859,1.732 3.13,1.764l199.385,0c5.915,0 10.708,4.794 10.708,10.709c0,5.916 -4.794,10.709 -10.708,10.709l-224.415,0c-3.826,0 -7.361,-2.043 -9.275,-5.355c-1.914,-3.314 -1.914,-7.396 0,-10.708l111.908,-193.142c1.91,-3.303 5.433,-5.344 9.249,-5.355l0.026,0Zm63.268,151.074c1.272,-0.035 2.45,-0.687 3.132,-1.765c0.564,-0.901 0.704,-1.979 0.44,-2.985l-15.731,-27.769l-0.193,-0.265c-0.738,-1.11 -2.005,-1.752 -3.333,-1.699c-1.318,0.055 -2.512,0.787 -3.16,1.935l-9.792,17.545c-1.727,3.392 -5.126,5.609 -8.926,5.829c-3.792,0.227 -7.431,-1.596 -9.535,-4.763l-11.185,-18.906c-0.741,-1.069 -1.976,-1.69 -3.279,-1.64c-1.293,0.054 -2.457,0.766 -3.112,1.872l-15.086,27.172c-0.562,1.178 -0.493,2.563 0.203,3.674c0.68,1.078 1.86,1.73 3.131,1.765l76.426,0Z" />
</svg>
