<svg id="BrandDulmage" xmlns="http://www.w3.org/2000/svg" viewBox="0 0 142 40">
  <path
    d="M141.076 3.774c-.088-.143-.363-.114-.479-.03-2.638 1.897-5.254 4.35-8.254 5.72-.219.046-.441.072-.679.013-.041-.01-.08-.024-.12-.036a5.788 5.788 0 0 0-.515-.487c-.205-.17-.815-.224-.959.063-.962 1.91-1.341 4.06-2.036 6.086-.32.935-.209 2.056-.123 3.06-.333.71-.549 1.484-.702 2.29-.901 2.111-1.436 4.35-2.153 6.58-.963 2.99-2.354 5.955-3.016 9.031-.283 1.31.473 1.992 1.307 2.038.359.087.863-.014 1.036-.22.02 0 .039-.003.058-.004.19.053.488.028.569-.095.043-.079.094-.15.14-.228a4.03 4.03 0 0 0 .267-.263c.186-.203.384-.404.573-.608a.236.236 0 0 0 .078-.037c.077-.059.149-.122.217-.19.052-.049.054-.088.032-.12l.071-.076c.003-.002.01-.004.012-.007.244-.24.312-.31.433-.465a81.921 81.921 0 0 1 3.023-3.044c.403-.28.772-.586 1.228-.793.015-.006.011-.019.022-.027.453-.138.837-.393 1.174-.712.504-.313.956-.748 1.374-1.665.087-.19.193-.36.31-.52.206-.238.432-.469.663-.7.8-.715 1.693-1.272 1.699-2.583 0-.199-.414-.138-.508-.068-2.146 1.598-3.755 3.845-6.094 5.148-.383.213-.691.541-.975.883-.081.006-.152.025-.184.061-.124.145-.256.265-.384.398-.331.208-.625.49-.978.845-.313.315-.712.54-1.087.788.382-.835.597-1.834.832-2.538.257-.774.825-1.377 1.044-2.212.311-1.188.554-2.349.921-3.516.525-.355.923-.764 1.301-1.46.485-.898 1.226-1.519 1.921-2.186l.012-.005c1.221-.828 1.799-2.237 2.843-3.265 1.064-1.05 1.861-2.049 2.253-3.509.04-.15-.415-.15-.479-.032-1.101 2.04-3.758 3.102-5.674 4.533a3.982 3.982 0 0 0-.262-.81.25.25 0 0 0-.088-.093 7.8 7.8 0 0 0 .349-1.065c.227-.96.093-1.889 1.028-2.52.417-.28.485-.735.614-1.167a4.261 4.261 0 0 0 .101-2.024c.622-.582 1.211-1.2 1.862-1.752 1.141-.966 2.414-1.726 3.528-2.739.864-.785 3.858-2.034 2.854-3.666Zm-19.472 15.143c-1.678-.28-3.867.633-5.273 1.466-1.277.758-2.056 1.993-3.338 2.754a3.152 3.152 0 0 0-1.169 1.272c-.386.41-.663.83-.723 1.242-.045.308.729.258.86.116 1.96-1.543 3.669-3.505 6.051-4.41.039.007.073.004.113.014a4.973 4.973 0 0 1-.612.902c-.658.866-1.177 1.756-1.685 2.72-.588 1.114-1.192 2.2-1.788 3.29a9.975 9.975 0 0 1-.759.797c-.438.408-.835.855-1.229 1.305a41.176 41.176 0 0 1-3.293 2.776c-.245-.018-.483-.03-.626-.039a.803.803 0 0 0-.414.086c-1.096-1.107-1.601-3.799-1.722-5.744.134-.356.255-.717.377-1.078 1.849-1.175 1.845-5.18 1.665-6.956a5.042 5.042 0 0 1 .038-1.15c.088-.23.127-.429.102-.584.766-3.46 4.281-7.676 7.262-8.254.275.055.543.01.765-.263.059-.073.108-.149.148-.227l.016-.008c.018-.014.018-.037.029-.053.481-.842.002-2.474-.61-2.996-1.156-.988-2.689.563-3.305 1.327-2.063 2.554-5.675 5.346-6.746 8.691-.835 1.856-1.449 4.028-1.776 6.037-.586 1-.654 2.423-.547 3.726-.693 2.241-.765 4.672.388 6.763 1.009 1.83 3.297 3.645 5.449 3.776 2.064.124 3.313-.413 3.71-2.343.05-.173.095-.353.128-.553.013-.057.028-.112.044-.167 1.153-.788 2.208-1.688 2.887-2.94.085-.156.134-.337.193-.512.27-.453.317-.803.278-1.158.063-.417.124-.828.199-1.223.026-.054.056-.107.082-.16.046-.1.234-.764.396-1.356.613-1.14 1.23-2.279 1.927-3.364.039-.06.073-.12.109-.182l.307-.328c.032-.035.035-.064.025-.09.327-.28.631-.573.91-.9.596-.505 1.167-1.067 1.511-1.71.108-.2-.229-.29-.354-.312Zm-24.303-3.312a.073.073 0 0 0-.023.004c-1.255.484-2.188 1.46-3.296 2.163-.089.024-.179.046-.267.072.305-.685.631-1.363.978-2.034.602-.672 1.29-1.255 1.313-2.25.001-.037-.02-.064-.056-.082.267-.482.533-.964.797-1.446.144 1.066.782 2.05.898 3.148l-.344.425Zm2.406-.94c-.333-2.434-.479-4.737-.569-7.144.685-1.488.848-2.893-.857-4.76-.147-.162-.5-.146-.687-.09-.967.29-1.114.216-1.382 1.4-.62 2.753-2.388 4.813-3.036 7.47-.82 3.369-3.489 5.863-4.066 9.158-.449 2.563-1.277 5.374-1.339 8.028-.74.912-1.289 2.153-1.724 3.069-.587 1.233-1.26 2.496-1.78 3.8-.075.022-.138.054-.169.102-.4.628-1.775 3.242-.135 3.468.91.125 1.35-.856 1.514-1.728.031-.08.06-.16.092-.235.334-.794.78-1.485 1.295-2.128.723-.421 2.565-.655 2.337-1.824-.147-.757-.275-1.32-.2-2.101.01-.118.03-.231.046-.347.152-.648.37-1.288.431-1.94.795-1.158 2.018-1.912 2.508-3.325.428-1.234.388-2.23 1.041-3.258 1-.471 1.885-1.067 2.595-1.993.43-.561.798-1.18 1.176-1.788l.038.007.03.022c-.048.602.033 1.213.19 1.819l-.148.6c-.017.019-.037.036-.039.065a.434.434 0 0 0-.002.036c0 .01.008.015.011.024-.596 2.426-1.183 4.846-1.583 7.319-.226 1.398-.716 3.62.561 4.64.256.204 1.036.265 1.127-.153.025-.145.064-.284.098-.425a.27.27 0 0 0 .11-.086c.41-.682.63-1.393.873-2.146.025-.078-.004-.138-.057-.185.202-.388.407-.776.57-1.182.32-.802.4-1.781.515-2.628.117-.868.096-1.766.06-2.668.11-1.624.353-3.253.461-4.881.305-1.27.29-2.584.094-4.011ZM86.994 2.955a1.355 1.355 0 0 0-.351-.223c-.045-.152-.088-.3-.13-.437-.072-.241-.59-.168-.744-.098-1.325.6-2.091 1.775-2.814 2.987-.61 1.02-1.278 2.074-1.77 3.183-.04.062-.083.124-.124.184-.201.296-.4.597-.584.905-.416.317-.781.696-1.154 1.119-.828.94-1.698 1.596-2.724 2.208a36.977 36.977 0 0 0-.11-2.786c-.097-1.161-.835-2.246-1.11-3.364-.338-1.378-1.318-3.766-2.864-1.98-.841.973-1.358 2.35-1.678 3.574-.343 1.315-.723 2.48-.94 3.672a2.771 2.771 0 0 0-.262.71c-.346 1.9-.482 3.749-1.293 5.54-1.203 2.662-2.641 4.905-2.64 7.913-.932 2.265-1.804 4.55-2.888 6.755-1.033 2.102-2.864 4.32-2.232 6.783.026.102.195.088.269.055.787-.347 1.189-.674 1.557-1.188.754-.407 1.566-.781 1.87-1.226.755-1.1 1.419-2.078 2.307-3.103-.175.202.343-.74.46-1.305.255-.015.697-.113.752-.17 1.029-.43 1.242-1.613 1.38-2.903.145-1.356-.02-2.777-.125-4.132-.105-1.35.68-2.432 1.328-3.581.486-.527 1.838-2.166 1.739-1.976.383-.736.545-1.498.824-2.25.049-.108.099-.216.146-.326.988-.147.966.544 1.66.75.418.124.814.162 1.17-.142.129-.11.232-.253.32-.418.076-.04.149-.092.223-.141.019-.008.04-.016.054-.027l.027-.025c.212-.152.407-.337.584-.534a6.27 6.27 0 0 0 .829-.963c.295-.243.53-.523.789-.866.015-.02.014-.035.016-.052.155-.16.302-.326.439-.491.306-.368.593-.741.889-1.106.18-.126.367-.242.567-.336.814-.38 1.262-.874 1.838-1.534a13.992 13.992 0 0 1-.254 1.568c-.25.88-.517 1.76-.804 2.683-.025.082-.044.167-.066.25-.81 2.248-1.816 4.459-2.318 6.784-.16.394-.268.776-.287 1.107-.951 1.71-1.445 3.9-2.15 5.672-.8 2.009-2.134 4.72-2.042 7.045-.116.235-.173.492-.121.714-.032.04-.016.073.028.098a.572.572 0 0 0 .14.206c.045.04.149.066.259.077.219.144.716.089.845-.045.943-.98 1.826-1.865 2.043-3.276.318-2.06 1.68-3.372 2.132-5.335.34-1.48 3.739-5.007 2.818-6.681-.023-.042-.048-.064-.071-.101.508-.588 1.386-1.027 1.656-1.678.38-.914.49-1.87.859-2.811.817-2.088 2.6-7.155 1.94-9.876.126-.38.193-.793.21-1.227.388-1.424.386-3.184-.317-3.83ZM60.37 28.674c.082-.194-.45-.347-.643-.307-.15.031-.306.073-.46.11l-.006.001-.015.004c-.42.103-.85.223-1.287.37a84.915 84.915 0 0 1-3.354.9c-.416.101-5.573 2.871-4.214 2.385-.928.332-1.386.697-1.776 1.098-.065-.067-.139-.13-.189-.206.016-.792-.02-1.563-.079-2.337.172-1.052.53-2.142.8-3.1.463-1.649.562-3.304.66-5.01.336-5.855-.78-11.764-1.377-17.568-.009-.089-.07-.154-.15-.209-.023-.33-.04-.65-.064-.985-.005-.066-.078-.103-.134-.117l-.528-.13c-.127-.033-.346-.044-.428.086-.29.458-.364.504-.377.666-.215.426-.22 1.118-.253 1.477-.053.6.03 1.197-.016 1.79 0 .001.003.002.003.004-.32 4.261-.406 8.803-.329 12.998-.046.3-.077.597-.133.895-.249 1.33-.208 2.721-.148 4.117-.488 3.55-1.375 7.197-1.173 10.617.018.527.057 1.052.148 1.57a.187.187 0 0 0 .05.094c.013.071.02.142.033.213.026.131.251.176.424.15.214.01.433-.019.654-.063a.825.825 0 0 0 .32-.064l.04-.025c.886-.273 1.773-.88 2.474-1.5 1.182-.74 2.35-1.495 3.514-2.25 1.132-.589 2.317-1.377 3.421-2.177a67.929 67.929 0 0 1 4.195-2.417c.292-.153.066-.276-.204-.325.182-.12.367-.258.558-.418.17-.144.147-.252.042-.337ZM40.753 14.498a.925.925 0 0 0 .139-.625 3.518 3.518 0 0 0-.219-.87.14.14 0 0 0-.052-.062c-.15-.136-.661-.118-.775-.007-.125.122-.213.232-.309.346-.113.042-.206.095-.25.159-4.207 6.194-2.504 14.174-6.155 20.578-.075.07-.153.122-.229.184-1.871.882-3.136.507-3.989-.52-.431-1.802-.67-3.8-1.043-5.561-.345-1.629.952-3.497.45-4.989-.295-.875-.333-1.747-.246-2.614.102-.558.201-1.116.293-1.672.378-1.61.925-3.192.828-4.723.005-.04.018-.08.022-.12.002-.027-.027-.043-.045-.063a4.753 4.753 0 0 0-.155-.818c.105-.866-.006-1.614-.665-1.886-.154-.068-.158-.038-.152-.22.007-.274-.576-.318-.841-.154-.091.005-.18.025-.205.08-.466.986-.683 2.07-.811 3.184-.216.823-.331 1.652-.2 2.482-.055.82-.118 1.633-.253 2.41-.384 2.232-.561 4.678-.551 7.044-.124 1.43-.2 3.058-.014 4.59-.667 1.79.42 4.66 1.876 5.555 2.038 1.25 5.382 1.548 7.484.157 2.753-1.822 3.062-3.694 3.406-6.041.145-.581.233-1.159.282-1.736.066-.341.138-.69.231-1.051.396-1.558.533-3.178.606-4.793a68.14 68.14 0 0 0 1.034-5.92c.139-.31.274-.628.425-.912a.669.669 0 0 0 .296-.415c.071-.024.119-.064.103-.125a5.132 5.132 0 0 0-.316-.871Zm-23.167 4.224c-.615 1.177-1.31 2.297-1.94 3.458-.636.691-1.275 1.378-1.91 2.066-.797.865-1.53 1.77-2.31 2.65-.62.7-1.468.864-2.335.945.096-.372.2-.74.325-1.104.657-1.879 1.566-3.253 1.795-5.223.356-.685.701-1.25.997-1.597 1.488-1.739 1.065-4.44 2.123-6.573.301-.607 1.418-2.85 1.954-4.97 1.577 1.42 3.197 3.138 3.458 5.2.171 1.358-1.525 3.94-2.157 5.148Zm3.631-8.668a9.948 9.948 0 0 0-2.565-3.314c-.875-.74-1.655-1.567-2.445-2.39-.364-.756-.292-1.728-.939-2.352a7.62 7.62 0 0 0-.68-.582A5.568 5.568 0 0 0 13.62.4a.768.768 0 0 0-.374-.139C12.406-.169 11.61.2 11.3 2.117c-.637 3.953-2.132 7.44-3.06 11.314-.828 3.451-2.14 6.494-2.423 9.803-1.805 2.764-1.148 6.691-3.403 9.413-.518.626-2.04 2.693-1.786 3.564.363 1.241 1.561.652 2.244 1.557.137.182.648.233.77 0 .014-.029.02-.06.032-.089 1.56-.589 2.836-2.105 4.344-2.858 1.102-.55 1.48-1.303 1.752-2.129.16-.04.291-.109.33-.21.17-.445.32-.892.475-1.338.004-.003.012-.005.016-.007.907-.764 2.263-1.396 2.92-2.409.34-.526.673-1.102.994-1.692.297-.336.561-.71.79-1.115a69.64 69.64 0 0 0 1.652-2.11c.944-.692 1.5-1.616 2.24-2.77.76-1.185 2.03-2.334 1.906-3.808.672-1.585 1.265-3.232 1.355-4.949.035-.673-.568-1.494-1.23-2.23Z"
  ></path>
</svg>
