<?xml version="1.0" encoding="utf-8"?>
<!-- Generator: Adobe Illustrator 21.0.2, SVG Export Plug-In . SVG Version: 6.00 Build 0)  -->
<svg version="1.1" id="logo-shopify" xmlns="http://www.w3.org/2000/svg" xmlns:xlink="http://www.w3.org/1999/xlink" x="0px"
	 y="0px" viewBox="0 0 160 46" enable-background="new 0 0 160 46" xml:space="preserve">
<path id="y" d="M154.336,18.022c0,0-3.392,8.544-4.896,13.216h-0.064c-0.096-1.504-1.344-13.216-1.344-13.216h-5.696l3.264,17.632
	c0.064,0.384,0.032,0.64-0.128,0.896c-0.64,1.216-1.696,2.4-2.944,3.264c-1.024,0.736-2.176,1.216-3.072,1.536l1.504,4.608
	c1.088-0.224,3.392-1.152,5.312-2.944c2.464-2.304,4.768-5.888,7.104-10.752L160,18.022H154.336z"/>
<path id="f" d="M141.28,17.99h-3.776l0.192-0.896c0.32-1.856,1.408-3.488,3.232-3.488c0.96,0,1.728,0.288,1.728,0.288l1.056-4.256
	c0,0-0.928-0.48-2.944-0.48c-1.92,0-3.84,0.544-5.312,1.792c-1.856,1.568-2.72,3.84-3.136,6.144l-0.16,0.896h-2.528l-0.8,4.096
	h2.528l-2.88,15.168h5.408l2.88-15.168h3.744L141.28,17.99z"/>
<path id="i" d="M128.672,12.55c-0.032,1.984-1.472,3.136-3.168,3.136h-0.064c-1.536,0-2.56-1.12-2.56-2.72
	c0-1.76,1.376-3.136,3.104-3.136C127.616,9.83,128.672,10.95,128.672,12.55z M118.4,37.254h5.408l3.68-19.232h-5.44L118.4,37.254z"
	/>
<path id="p" d="M112.64,17.606c-3.648,0-5.728,3.232-5.728,3.232h-0.064l0.32-2.912h-4.8c-0.224,1.952-0.672,4.96-1.088,7.2
	l-3.776,19.84h5.408l1.504-8.032h0.128c0,0,1.12,0.704,3.168,0.704c6.368,0,10.528-6.528,10.528-13.12
	C118.24,20.87,116.608,17.606,112.64,17.606z M107.456,33.542c-1.408,0-2.24-0.8-2.24-0.8l0.896-5.056
	c0.64-3.392,2.4-5.632,4.288-5.632c1.664,0,2.176,1.536,2.176,2.976C112.576,28.55,110.496,33.542,107.456,33.542z"/>
<path id="o" d="M91.424,17.606c-6.528,0-10.848,5.888-10.848,12.448c0,4.192,2.592,7.584,7.456,7.584
	c6.4,0,10.72-5.728,10.72-12.448C98.784,21.286,96.512,17.606,91.424,17.606z M88.768,33.478c-1.856,0-2.624-1.568-2.624-3.552
	c0-3.104,1.6-8.16,4.544-8.16c1.92,0,2.56,1.664,2.56,3.264C93.248,28.358,91.616,33.478,88.768,33.478z"/>
<path id="h" d="M74.72,17.606c-2.4,0-4.288,1.152-5.728,2.88l-0.064-0.032l2.08-10.88H65.6l-5.28,27.712h5.408l1.792-9.472
	c0.704-3.584,2.56-5.792,4.288-5.792c1.216,0,1.696,0.832,1.696,2.016c0,0.736-0.064,1.664-0.224,2.4l-2.048,10.848h5.408
	l2.112-11.2c0.224-1.184,0.384-2.592,0.384-3.552C79.168,19.43,77.568,17.606,74.72,17.606z"/>
<path id="s" d="M55.328,25.702c-1.376-0.736-2.08-1.376-2.08-2.24c0-1.088,0.992-1.792,2.528-1.792c1.792,0,3.392,0.736,3.392,0.736
	l1.248-3.84c0,0-1.152-0.896-4.544-0.896c-4.736,0-8.032,2.72-8.032,6.528c0,2.176,1.536,3.808,3.584,4.992
	c1.664,0.928,2.24,1.6,2.24,2.592c0,1.024-0.832,1.856-2.368,1.856c-2.272,0-4.448-1.184-4.448-1.184l-1.344,3.84
	c0,0,1.984,1.344,5.344,1.344c4.864,0,8.384-2.4,8.384-6.72C59.2,28.55,57.44,26.918,55.328,25.702z"/>
<path d="M34.4,8.966c-0.064-0.224-0.256-0.352-0.416-0.384c-0.16,0-3.584-0.256-3.584-0.256s-2.368-2.368-2.656-2.624
	c-0.096-0.096-0.224-0.16-0.352-0.16c-0.233-0.042-0.486,0.023-0.608,0.064c-0.032,0-0.512,0.16-1.344,0.416
	c-0.8-2.336-2.208-4.448-4.672-4.448c-0.064,0-0.128,0-0.224,0c-0.672-0.896-1.568-1.312-2.304-1.312
	c-5.76,0-8.512,7.2-9.376,10.848c-2.24,0.704-3.84,1.184-4.032,1.248c-1.248,0.384-1.28,0.416-1.44,1.6
	C3.264,14.854,0,40.134,0,40.134l25.44,4.768l13.824-2.976C39.264,41.926,34.432,9.19,34.4,8.966z M20.352,7.302
	c0,0.096,0,0.16,0,0.256c-1.408,0.448-2.912,0.896-4.448,1.376c0.864-3.296,2.496-4.896,3.872-5.504
	C20.128,4.326,20.352,5.574,20.352,7.302z M18.08,1.798c0.256,0,0.512,0.096,0.736,0.256c-1.856,0.864-3.808,3.04-4.64,7.424
	c-1.216,0.384-2.4,0.736-3.52,1.088C11.616,7.238,13.952,1.798,18.08,1.798z M19.072,21.254c0,0-1.504-0.8-3.328-0.8
	c-2.688,0-2.816,1.696-2.816,2.112c0,2.304,6.016,3.2,6.016,8.608c0,4.256-2.688,7.008-6.336,7.008c-4.384,0-6.592-2.72-6.592-2.72
	L7.2,31.59c0,0,2.304,1.984,4.224,1.984c1.28,0,1.792-0.992,1.792-1.728c0-3.008-4.928-3.136-4.928-8.096
	c0-4.16,2.976-8.192,9.024-8.192c2.304-0.032,3.456,0.64,3.456,0.64L19.072,21.254z M21.888,7.078c0-0.16,0-0.288,0-0.48
	c0-1.408-0.192-2.56-0.512-3.488c1.28,0.192,2.112,1.632,2.656,3.296C23.392,6.598,22.656,6.822,21.888,7.078z"/>
</svg>
