<svg id="logo_sandwich-video" version="1.1" xmlns="http://www.w3.org/2000/svg" xmlns:xlink="https://www.w3.org/1999/xlink" viewBox="0 0 280 100">
  <path d="M109.047.725h13.68c12.406 0 21.919 5.443 21.919 19.026 0 7.067-3.207 12.469-8.381 15.423.081.041.162.083.242.126.377.146.794.199 1.157.37.296.179.574.388.828.623a9.477 9.477 0 0 1 2.055 2.008c.382.457.672.985.852 1.554.12.336.353.621.66.805.259.186.501.397.719.629a4.611 4.611 0 0 1 1.566 2.414c.263.592.44 1.217.527 1.859.032 1.041.121 2.085.062 3.128a9.071 9.071 0 0 1-.241 2.115c-.03.416-.085.831-.163 1.241-.152.392-.23.809-.229 1.229a7.351 7.351 0 0 1-.524 1.795c-.258 1.219-1.019 2.346-1.304 3.649-.065.298-.367.521-.45.86-.03.305-.152.593-.35.828a8.09 8.09 0 0 0-.37.924c-.54.749-.678 1.695-1.274 2.423a9.843 9.843 0 0 0-.546 1.223c-.443.756-.87 1.532-1.276 2.308-.437.837-1.065 1.554-1.451 2.393-.643 1.396-1.787 2.448-2.44 3.833-.303.456-.638.891-1.002 1.3-.817 1.227-1.756 2.368-2.593 3.583-.406.59-.893 1.133-1.338 1.7a82.726 82.726 0 0 1-3.002 3.584c-1.167 1.322-2.418 2.57-3.565 3.908-.774.905-1.63 1.727-2.459 2.573a26.352 26.352 0 0 1-2.957 2.629 30.442 30.442 0 0 1-2.845 1.809 9.422 9.422 0 0 1-3.047.877.538.538 0 0 1-.261-.017 3.81 3.81 0 0 0-1.056-.148 1.095 1.095 0 0 1-.906-.378.997.997 0 0 0-.663-.148c-.404-.009-.808.034-1.213.044a1.688 1.688 0 0 1-1.688-1.355.399.399 0 0 0-.298-.344 1.474 1.474 0 0 1-.32-.154c-.683-.463-.682-.465-.456-1.227.142-.479.298-.956.427-1.437.081-.298-.1-.112-.218-.137a3.244 3.244 0 0 1-2.165-.993.444.444 0 0 1-.121-.274 2.684 2.684 0 0 1 2.085-2.085c.639-.075.653-.164.564-.894a5.918 5.918 0 0 1-.055-.95.786.786 0 0 1 .186-.468 1.08 1.08 0 0 0 .46-1.227c.281-.684.129-1.452.438-2.135.297-.931.519-1.884.666-2.85.339-.94.613-1.902.819-2.879.112-.863.47-1.652.562-2.491.087-.801.405-1.54.489-2.315.07-.644.321-1.242.366-1.863.043-.587.284-1.127.307-1.688.024-.596.284-1.127.308-1.688.1-.466.175-.938.223-1.412-.045-.527.259-.951.244-1.418-.031-.923.322-1.798.259-2.722.043-.277.116-.548.219-.808.046-.256 0-.531.054-.785.123-.553.09-1.116.159-1.668.061-.496.161-.992.198-1.503.058-.877.178-1.749.232-2.629a.373.373 0 0 0-.347-.482c-.576-.199-.654-.298-.449-.857a3.648 3.648 0 0 1 .703-1.771.375.375 0 0 0-.126-.252c-.228-.033-.464-.011-.695-.028-.207-.016-.413-.056-.618-.089-.171 0-.34-.033-.497-.099-.548-.373-.562-.39-.695.178-.082.408-.142.82-.18 1.235-.194.35-.253.759-.166 1.15a.344.344 0 0 1-.035.176c-.199.894-.412 1.78-.596 2.674-.091.437-.141.883-.204 1.325a1.885 1.885 0 0 0-.18 1.238.403.403 0 0 1-.048.177c-.261.94-.473 1.893-.634 2.856-.105.858-.461 1.66-.532 2.494a16.949 16.949 0 0 1-.347 1.682c-.081.438-.112.893-.21 1.323a6.116 6.116 0 0 0-.371 1.347 17.145 17.145 0 0 1-.504 2.317c-.104 1.018-.557 1.957-.664 2.944-.115 1.06-.589 2.005-.729 3.03-.151 1.104-.624 2.134-.747 3.213a37.874 37.874 0 0 1-1.044 4.015 1.194 1.194 0 0 1-.324.518 2.246 2.246 0 0 0-.509 1.025 4.28 4.28 0 0 1-1.026 1.967 35.04 35.04 0 0 1-2.544 2.954c-1.339 1.28-2.468 2.755-3.726 4.112a1.106 1.106 0 0 0-.226.371c-.105.298-.18.596-.274.894-.199.62-.387.695-1.022.454a.46.46 0 0 1-.332-.481c-.04-.42.018-.843.168-1.236.187-.475.204-.999.048-1.485a.627.627 0 0 0-.176-.397c-.482-.055-.43-.436-.452-.729a12.276 12.276 0 0 0-.634-2.106c-.362-1.397-.929-2.742-1.275-4.142a7.727 7.727 0 0 1-.46-2.473 1.66 1.66 0 0 1 .02-.434c.681-1.831.848-3.794 1.472-5.641.171-.505.176-1.065.298-1.589a7.433 7.433 0 0 0 .423-1.528 9.885 9.885 0 0 1 .585-2.491c.033-.51.111-1.017.233-1.514a3.99 3.99 0 0 0 .441-1.52c0-.732.366-1.36.424-2.046.07-.835.434-1.602.505-2.405.072-.6.199-1.193.379-1.77.034-.479.102-.956.205-1.425a1.74 1.74 0 0 0 .222-1.32.427.427 0 0 1 .049-.178c.219-.95.449-1.898.652-2.853.081-.375.099-.763.153-1.144.175-.358.231-.762.16-1.153.006-.155.047-.306.119-.443.233-.818.407-1.652.519-2.495a12.18 12.18 0 0 1 .281-1.504c.07-.347.085-.704.127-1.056.165-.297.203-.648.105-.974a.792.792 0 0 1 .099-.352c.211-.44.291-.932.229-1.416.397-.878.257-1.886.647-2.755.353-.705.751-1.387 1.191-2.042a.696.696 0 0 1 .317-.186c.283-.058.55-.177.783-.347.168-.3.275-.63.316-.97.019-.078.037-.152.056-.222h-4.068c-.096.215-.184.433-.266.653-.311.435-.327 1.023-.632 1.381a14.75 14.75 0 0 0-.596 1.415c-.362.481-.385 1.101-.683 1.573-.297.472-.354 1.045-.635 1.489-.439.695-.49 1.518-.857 2.207-.409.77-.509 1.651-.917 2.383-.478.854-.56 1.82-.973 2.665-.739 1.511-.948 3.204-1.627 4.711a39.163 39.163 0 0 0-1.588 4.828c-2.335 7.712-4.629 15.437-6.937 23.157a1.663 1.663 0 0 1-.268.777 1.328 1.328 0 0 0-.163.695 12.744 12.744 0 0 0-1.225 3.46c-.389 1.154-.704 2.332-1.057 3.498-.059.39-.235.753-.503 1.042a2.416 2.416 0 0 0-.541 1.125 23.933 23.933 0 0 1-.669 1.576.533.533 0 0 1-.278.214c-.19.075-.398.112-.59.174a1.256 1.256 0 0 0-1.16 1.16 9.106 9.106 0 0 1-.558 1.218 1.86 1.86 0 0 1-1.473.497 4.51 4.51 0 0 1-1.869-.719.572.572 0 0 0-.328 0 3.011 3.011 0 0 1-1.476.042c-.516.314-.669-.217-.936-.43a1.714 1.714 0 0 1-.321-.565 1.532 1.532 0 0 0-.771-.813 1.11 1.11 0 0 1-.298-.324 5.669 5.669 0 0 1-.711-1.933 1.198 1.198 0 0 0-.644-.859 2.034 2.034 0 0 1-.976-1.347c-.478-1.589-.759-3.225-1.112-4.843-.254-1.163-.315-2.355-.596-3.507-.516-2.114-.76-4.277-1.213-6.4a24.416 24.416 0 0 0-.433-2.476 23.773 23.773 0 0 1-.497-2.392c-.354-1.589-.615-3.191-.992-4.766-.363-1.498-.647-3.011-.984-4.513-.546-2.432-1.075-4.865-1.409-7.34a86.298 86.298 0 0 0-.96-5.729 27.352 27.352 0 0 0-.713-3.239 1.333 1.333 0 0 1-.014-.871 5.685 5.685 0 0 1 1.147-1.756c.15-.092.32-.145.496-.154.199-.053.397-.099.596-.15.202-.009.398-.073.566-.186a1.42 1.42 0 0 0-.115-.568 2.87 2.87 0 0 0-.041-.774.767.767 0 0 1 .37-.978c.281-.238.627-.386.993-.424.464-.044.92-.151 1.356-.317a2.419 2.419 0 0 1 1.669.114.624.624 0 0 1 .418.315c.258.486.266.45.795.338a.811.811 0 0 1 .887.307c.158.287.396.521.686.673a.584.584 0 0 1 .324.391c.003.405.179.79.483 1.057.253.285.425.633.497 1.007.214.508.189.533.584.634.34.107.662.266.955.471a.642.642 0 0 1 .322.497c.154.826.328 1.649.496 2.473.188.909.431 1.811.553 2.728.138 1.038.461 2.043.56 3.078.181 1.877.562 3.716.912 5.56.135.953.35 1.892.644 2.809a5.1 5.1 0 0 1 .124.768c.221 1.109.45 2.216.672 3.325.005.027-.031.064-.023.089.079.254.162.506.244.758a5.47 5.47 0 0 0 .32-.706c.558-1.867 1.109-3.724 1.664-5.579.457-1.526.894-3.057 1.373-4.577.596-1.914 1.432-3.751 1.899-5.708.639-.972.689-2.168 1.178-3.178.377-.781.505-1.65.913-2.382a17.48 17.48 0 0 0 .801-2.132c.143-.357.334-.695.496-1.041a1.65 1.65 0 0 1 .506-1.041.136.136 0 0 0 .027-.089c.112-.869.753-1.539.902-2.383.112-.373.287-.723.515-1.038.029-.368.195-.713.466-.965a.567.567 0 0 0 .099-.253c.216-.693.489-1.366.816-2.014.507-.837.738-1.799 1.316-2.606.251-.442.453-.91.602-1.396.466-.767.852-1.579 1.153-2.423.45-.266.372-.841.722-1.202l.022-.036-5.859-9.628h-.393c.441 2.551.833 4.953.833 7.405v12.013H54.795l-1.225-4.609H43.42l-1.079 4.609h-14.22L40.968.725h14.858l13.035 36.536V.725h12.896l12.062 20.497h.393c-.54-3.089-1.128-6.276-1.128-9.415h.001V.725h12.847v35.804c.13.054.249.138.346.249a.521.521 0 0 0 .047.083c.267.172.518.367.75.584.199.224-.117.596.168.847.087.075.149.182.23.266.429.266.652.77.56 1.266-.033.343-.047.503.323.569.275.059.545.138.808.237.24.025.468.118.657.269.14.319.188.672.139 1.017-.124.803-.338 1.597-.5 2.406-.074.378-.09.766-.155 1.145-.056.33-.143.654-.217.981.311-.143.575-.372.759-.66.263-.168.536-.32.817-.455.626-.368.785-.56.588-1.206a.979.979 0 0 1 .378-1.092c.314-.176.531-.487.588-.842-.033-.383.187-.744.117-1.053a1.99 1.99 0 0 1 .32-1.489 4.26 4.26 0 0 1 1.216-1.454c.269-.128.547-.233.832-.315a.33.33 0 0 0 .235-.185h-5.891V.725zm49.62 22.066h.294c.245-2.256.539-4.61 1.127-6.816l3.923-15.25h10.298l5.051 22.066h.294c.196-2.158.441-4.414.931-6.522L184.312.725h13.975l-13.043 36.972h-.507c-.137.288-.092.309.248.395.223.094.469.12.707.075.538.061.99.437 1.148.955a1.611 1.611 0 0 1-.429.726 4.235 4.235 0 0 1-.392.24.952.952 0 0 0-.452 1.153.845.845 0 0 1-.566 1.045l-.056.015a3.422 3.422 0 0 0-1.233.418 2.584 2.584 0 0 0-.408 1.22 1.192 1.192 0 0 1-.794 1.009c-.39.144-.81.182-1.219.109a8.407 8.407 0 0 0-2.352-.18c-.866.035-1.738-.063-2.61.019-1.178.107-2.37.125-3.541.298-1.258.186-2.522.322-3.773.581a56.354 56.354 0 0 0-4.752 1.198c-1.385.417-2.711 1.01-4.122 1.346-.313.074-.581.282-.92.356a.882.882 0 0 0-.674 1.041v.005a24.228 24.228 0 0 1-.064 3.922c-.023.199.022.406.005.607-.016.201.036.172.189.122a31.927 31.927 0 0 1 4.837-1.183 14.952 14.952 0 0 1 1.701-.374c1.191-.046 2.332-.388 3.524-.455.762-.043 1.54-.238 2.316-.298a4.118 4.118 0 0 1 2.184.14.632.632 0 0 1 .364.351c.013.397.106.397.482.307a1.012 1.012 0 0 1 1.361.548.862.862 0 0 0 .308.298c.14.099.308.17.443.279.215.173-.128.298-.077.376.092.326.286.615.554.823.127.07.237.169.319.288a.55.55 0 0 1 .042.744c-.305.413-.207.789.223.893.43.105.894.108 1.323.217a.571.571 0 1 1 .359 1.013c-.19.258-.422.482-.686.664a.843.843 0 0 0-.47 1.03 1.034 1.034 0 0 1-.834 1.291c-.025.007-.064-.03-.089-.023a1.32 1.32 0 0 0-1.296 1.249 3.436 3.436 0 0 1-.574 1.203c-.32.336-.767.522-1.23.511a25.554 25.554 0 0 0-3.873.397 47.381 47.381 0 0 0-2.998.466 40.89 40.89 0 0 0-4.666 1.164c-1.676.524-3.317 1.14-4.965 1.748-.559.206-.831.335-.676.975a1.864 1.864 0 0 1-.207.801c-.132.45-.291.894-.398 1.348-.135.586-.204 1.192-.347 1.772-.149.605-.355 1.197-.528 1.798-.066.229.099.262.258.234.97-.166 1.933-.374 2.907-.503 1.716-.229 3.427-.478 5.163-.596 1.057-.071 2.121-.249 3.177-.372 1.233-.143 2.456-.364 3.691-.486.454.026.891-.178 1.162-.541a.942.942 0 0 1 .565-.311c.574-.126 1.109-.367 1.688-.496.399-.12.825-.12 1.224 0 .139.052.29.062.434.029a.298.298 0 0 1 .377.125c.142.183.324.331.532.433.199.078.322.432.66.139a.519.519 0 0 1 .705.189v.009c.351.386.745.731 1.173 1.03.149.09.266.224.335.384a1.51 1.51 0 0 0 .768 1.505.528.528 0 0 1 .192.639.547.547 0 0 1-.32.407c.19.087.374.187.569.259.234.085.488.124.714.224.21.093.388.257.596.362.506.26.614.578.255.993a7.35 7.35 0 0 1-1.071 1.023c-.213.165-.289.259-.156.511a.798.798 0 0 1 .068.509c-.111.496-.168 1.053-.893 1.041-.143.04-.283.089-.419.147a.887.887 0 0 0-.841.81c-.086.549-.566.92-.67 1.483a.993.993 0 0 1-.663.378 32.1 32.1 0 0 1-3.408.695c-1.636.189-3.251.529-4.888.681-.805.075-1.605.214-2.41.254-.805.04-1.609.199-2.411.239-2.03.115-4.006.562-6.002.873-.893.192-1.769.458-2.617.794a38.662 38.662 0 0 0-5.965 2.921c-.451.244-.864.558-1.29.842a3.926 3.926 0 0 0-1.291.847c-.884.309-1.709.9-2.724.582a2.296 2.296 0 0 1-.877-.066c-.231-.172-.443-.372-.679-.536a.487.487 0 0 0-.313-.056 9.117 9.117 0 0 1-1.379.15.962.962 0 0 1-1.149-.894 3.88 3.88 0 0 0-.076-.426.595.595 0 0 0-.525-.452c-.628-.079-.795-.309-.639-.863.073-.217.137-.425.2-.635.051-.213.118-.422.198-.625.097-.176.209-.344.333-.503a1.995 1.995 0 0 0-.828-.268 2.325 2.325 0 0 1-1.151-.237 3.577 3.577 0 0 0-.596-.375.552.552 0 0 1-.161-.397c.104-.501.311-.974.608-1.39a1.658 1.658 0 0 1 1.158-.731c.38-.091.747-.231 1.092-.416a8.914 8.914 0 0 1-.198-1.075 1.597 1.597 0 0 1 .099-.948 2.73 2.73 0 0 1 1.352-.875c.389-.136.788-.242 1.179-.374a.282.282 0 0 0 .179-.422 15.704 15.704 0 0 1-.571-2.985 1.54 1.54 0 0 1-.054-.427c.261-1.133.532-2.264.814-3.392.106-.424.243-.84.373-1.257.392-1.262.447-2.606.952-3.839a6.045 6.045 0 0 1 .346-1.868c.061-.343.032-.701.124-1.057.161-.33.22-.7.17-1.063.05-.365.141-.724.271-1.069.05-1.161.298-2.293.456-3.438-.247-.538.213-1.017.114-1.58.037-.503.103-1.004.198-1.499.095-.928.122-1.863.082-2.796.217-1.155.289-2.334.212-3.507.05-1.031 0-2.085-.039-3.124a47.593 47.593 0 0 0-.472-5.085c-.055-.372-.115-.743-.144-1.116a.791.791 0 0 1 .099-.442 6.53 6.53 0 0 1 2.24-2.527.53.53 0 0 0 .355-.713.858.858 0 0 1 .064-.695 1.632 1.632 0 0 1 1.085-.846c.414-.017.745-.298 1.098-.322a2.282 2.282 0 0 1 1.564-.075.757.757 0 0 0 .351.061.598.598 0 0 1 .671.508v.012c.018.144.115.26.242.311L140.083.725h13.925l4.659 22.066zm40.081 13.339V.725h13.436v35.232c1.045.309 2.09.621 3.13.946.303.099.567.314.863.439.361.063.706.195 1.017.388.236.271.671.138.813.539.174.109.36.195.554.258.946.711 1.84 1.488 2.675 2.325a9.333 9.333 0 0 1 1.373 1.768 7.328 7.328 0 0 0 1.838 2.366c.458.341.812.805 1.022 1.337.229.296.42.622.565.967.122.353.291.687.504.993.187.377.347.768.477 1.169.325 1.092.668 2.184.888 3.3.191.992.312 1.996.363 3.005.031.989.005 1.98-.078 2.966a17.363 17.363 0 0 1-.368 1.956c-.075.409-.1.829-.184 1.234-.095.427-.22.847-.375 1.256-.158.417-.368.814-.553 1.221a4.945 4.945 0 0 1-.504 1.152 7.953 7.953 0 0 0-.728 1.642 3.3 3.3 0 0 0-.376.684 8.44 8.44 0 0 1-.496.947c-.11.34-.268.661-.469.956a17.088 17.088 0 0 1-1.787 2.566 6.986 6.986 0 0 1-1.183 1.373c-.454.371-.879.774-1.272 1.207-.316.286-.497.716-.809 1.011a32.351 32.351 0 0 1-3.709 3.238 23.333 23.333 0 0 1-3.419 2.116 22.259 22.259 0 0 1-7.002 2.115c-1.15.18-2.321.19-3.475.03-.466.207-.88-.209-1.316-.125a2.169 2.169 0 0 1-1.237-.27c-.354-.049-.71-.08-1.067-.092a2.959 2.959 0 0 0-1.056-.159 12.61 12.61 0 0 1-3.914-.971c-.461-.243-.967-.36-1.398-.612-.431-.252-.837-.523-1.273-.766a6.236 6.236 0 0 1-1.21-.974 32.243 32.243 0 0 1-2.64-2.927 12.187 12.187 0 0 1-1.511-2.253 6.879 6.879 0 0 0-.545-1.236 20.16 20.16 0 0 1-1.453-2.458 7.296 7.296 0 0 1-.774-2.269 10.407 10.407 0 0 1-.441-2.217c.007-.929-.032-1.856-.015-2.78.034-.911.126-1.819.273-2.719a19.78 19.78 0 0 1 1.015-4.145c.298-.987.469-1.653.695-2.301.245-.815.554-1.609.925-2.375.353-.655.587-1.362.966-2 .446-.75.912-1.489 1.367-2.234.137-.223.277-.445.403-.674a.19.19 0 0 0-.033-.171 5.067 5.067 0 0 1-.542-.564 1.499 1.499 0 0 1-.288-1.453 3.829 3.829 0 0 1 1.199-1.934 10.44 10.44 0 0 1 1.237-.778c.18-.099.141-.164.099-.33a2.245 2.245 0 0 1-.008-.596 1.56 1.56 0 0 1 .487-1.136 4.858 4.858 0 0 1 2.131-1.39 14.384 14.384 0 0 0 1.498-.65 34.79 34.79 0 0 1 3.543-1.083c.731-.178 1.439-.423 2.152-.655zm-1.336 34.735c.583.153 1.171.268 1.768.37.897.15 1.81.183 2.716.099a14.414 14.414 0 0 0 5.141-1.553 23.52 23.52 0 0 0 2.128-1.266 25.972 25.972 0 0 0 3.049-2.435 4.079 4.079 0 0 0 1.316-1.589c.35-.742.655-1.504.913-2.283.198-.479.304-.99.313-1.508-.073-.524.434-1.012.229-1.589a5.065 5.065 0 0 0 .205-2.021v-1.821c0-.603-.14-1.21-.185-1.811a17.71 17.71 0 0 0-.886-3.645.875.875 0 0 0-.298-.453c-.405-.282-.876-.477-1.251-.794a6 6 0 0 0-1.218-.561 3.371 3.371 0 0 0-2.012-.591 31.807 31.807 0 0 0-4.318.288c-.862.088-1.71.287-2.563.447-.503.12-.978.333-1.403.627-.147.091-.247.259-.397.342a6.46 6.46 0 0 0-2.405 2.176 4.466 4.466 0 0 1-.373.695 7.156 7.156 0 0 0-1.123 2.085 24.092 24.092 0 0 0-.956 3.13 19.602 19.602 0 0 0-.781 3.112c-.084.85-.273 1.707-.312 2.565-.057.434-.09.872-.099 1.309.046.778.093 1.557.13 2.334.122 1.134.402 2.246.832 3.304.089.15.209.28.351.381.437.334.948.559 1.489.656zm-66.533-16.49c.134-.651.373-1.364.488-2.127.145-.973.38-1.931.464-2.923.07-.346.092-.7.065-1.052.068-.375.059-.76-.027-1.131.084-.223.09-.468.018-.695.007-.209-.061-.14-.199-.113a22.61 22.61 0 0 0-2.621.784c-1.396.45-2.641 1.204-3.988 1.739-.323.128-.622.285-.397.721-.114.37-.165.756-.151 1.143a2.168 2.168 0 0 0-.053.79 5.766 5.766 0 0 0-.077.88 9.958 9.958 0 0 1-.131 1.231c.011.463-.181.893-.191 1.325-.021.915-.191 1.814-.225 2.719-.019.497-.238.952-.23 1.414.015.922-.237 1.804-.275 2.719-.072.89-.208 1.774-.407 2.645a9.049 9.049 0 0 1-.487 2.408.52.52 0 0 0-.087.351c.077.392.017.799-.171 1.152-.045.382-.079.767-.152 1.144-.06.305-.179.596-.259.9a.755.755 0 0 0 .025.246.713.713 0 0 0 .243-.137c.34-.467.67-.933 1.059-1.37.511-.628.975-1.291 1.39-1.986.445-.678.907-1.343 1.362-2.014.455-.671.785-1.432 1.236-2.117.227-.344.305-.794.557-1.11.279-.351.298-.81.535-1.127.596-.794.781-1.787 1.324-2.6.201-.355.321-.751.35-1.158.155-.389.339-.765.551-1.125.129-.487.286-.963.455-1.53l.006.004zm103.06-42.372c-4.02 0-7.306 3.188-7.306 7.209 0 4.07 3.482 7.208 7.503 7.208 3.09 0 5.542-1.324 7.699-3.433l-.393 13.828c-2.158 1.03-7.159 1.471-9.562 1.471-10.543 0-18.781-8.189-18.781-18.731 0-10.788 8.484-19.418 19.32-19.418 3.04 0 6.178.539 9.022 1.519l.393 14.074c-2.157-2.011-4.854-3.727-7.895-3.727zM20.94 14.504c5.688 1.275 9.807 4.315 9.806 10.592 0 8.826-8.041 13.19-16.034 13.19-4.658 0-10.052-1.274-14.22-3.383L4.61 24.46l.687.539c2.403 1.863 5.296 3.383 8.385 3.383 1.324 0 3.433-.539 3.433-2.206 0-1.667-1.766-1.815-2.991-2.06l-2.697-.49c-5.247-.933-9.66-4.021-9.66-9.808C1.767 5.041 9.759.137 17.801.137c4.217 0 8.091 1.03 11.72 3.237l-3.629 9.464c-2.304-1.57-4.904-2.796-7.797-2.796-1.176 0-2.892.442-2.892 1.962 0 1.372 1.667 1.569 2.697 1.813l3.04.687zm236.369-1.324h8.238V.725h12.945v36.972h-12.945V24.85h-8.238v12.847h-12.945V.725h12.945V13.18zm-84.797 19.69l-3.205-15.277h-.44c-.148 1.912-.245 3.775-.687 5.589l-2.739 10.666c.216-.049.431-.099.646-.152a8.082 8.082 0 0 1 2.399-.346 4.748 4.748 0 0 0 1.023-.179c.995-.169 2.003-.196 3.003-.301zm-49.196-20.573h-.834v14.319h.834c4.462 0 7.894-2.06 7.894-6.915 0-5.198-2.991-7.404-7.894-7.404zm-74.55.736h-.491l-2.452 11.278v.001h5.394l-1.569-6.522c-.392-1.569-.637-3.188-.882-4.757zm44.318-1.226"/>
</svg>
