<svg id="logo_chicken" version="1.1" xmlns="http://www.w3.org/2000/svg" xmlns:xlink="https://www.w3.org/1999/xlink" viewBox="0 0 280 217">
  <circle cx="228.882" cy="107.592" r="8.315"/>
  <path d="M273.958,85.71c-1.313-9.628-7.877-16.192-17.505-17.505c-3.939-6.564-11.378-10.941-19.693-10.941
  c-7.44,0-14.004,3.939-18.381,9.19l-93.653,121.224c-8.315,10.503-24.507,17.505-32.822,17.505H9.19V217h185.119
  c11.816,0,21.882-9.628,26.258-21.006l24.07-65.207c1.751-5.252,7.877-8.753,13.567-9.628c4.376-0.875,8.315,0.438,11.816,2.188
  c-1.75-3.939-3.501-7.877-5.252-11.816l-0.875-0.875l0.875,0.438c5.252,0.438,10.503-2.188,13.129-7.002
  C281.836,97.964,280.085,90.086,273.958,85.71z M251.201,114.594c-6.565-0.875-13.567,0.875-17.943,12.691l-23.632,64.77
  c-3.063,7.44-10.503,13.129-17.505,13.129h-81.4c10.503-1.751,20.569-6.127,28.009-15.317l48.577-63.019l24.07-31.072
  c5.252-5.252,12.254-7.002,19.256-5.252c10.066,3.063,17.505,14.442,21.444,23.195l0.438,0.875H251.201z M261.704,106.279
  c-5.252-8.753-10.503-18.381-19.693-24.507c-5.689-3.501-13.567-3.501-19.693-0.438l-1.313,0.875l1.313-1.313l5.689-7.44
  c4.814-6.127,13.129-6.127,17.943-1.313c1.751,1.751,3.063,4.814,3.501,7.44c0.875-0.438,2.188-0.875,3.501-0.875
  c5.689,0,8.753,3.501,8.753,8.753c0,1.313-0.438,2.626-0.875,3.939c4.376,0,7.44,3.063,7.44,7.002
  C268.269,102.778,265.206,105.841,261.704,106.279z" />
  <path d="M115.973,179.801l68.708-88.402c8.315-10.503,14.88-32.385,14.88-40.7V18.315l-8.315,6.565
  c-5.252,3.939-12.254,3.501-17.068-0.875L150.983,0.809l-23.195,23.195c-4.814,4.814-12.254,5.252-17.068,0.875l-8.753-7.002v79.212
  l0.438,1.751l-0.875-1.313L69.146,65.141l-1.313,10.941c-0.875,6.127-6.127,11.378-12.691,11.378l-33.26-0.438v32.385
  c0,6.565-4.814,11.816-11.378,12.691L0,132.974l45.514,46.389C66.52,200.37,98.905,198.182,115.973,179.801z M33.698,120.283V98.839
  h21.444c7.877,0,14.442-4.376,19.256-10.941l26.696,26.696v39.387c0,7.002-2.188,13.567-7.44,18.818
  c-10.503,10.503-27.133,10.503-37.636,0l-33.26-33.26C29.321,134.725,33.698,127.723,33.698,120.283z" />
</svg>
