<?xml version="1.0" encoding="utf-8"?>
<!-- Generator: Adobe Illustrator 18.1.1, SVG Export Plug-In . SVG Version: 6.00 Build 0)  -->
<svg version="1.1" id="logo_northman" xmlns="http://www.w3.org/2000/svg" xmlns:xlink="http://www.w3.org/1999/xlink" x="0px"
	 y="0px" viewBox="0 0 280 280" enable-background="new 0 0 280 280" xml:space="preserve">
<path d="M181.574,18.159C170.508,7.094,155.743,1,140.001,1c-15.743,0-30.509,6.094-41.574,17.159L18.159,98.426
	C7.094,109.492,1,124.258,1,140.001c0,15.743,6.094,30.509,17.159,41.574l80.268,80.268C109.492,272.907,124.257,279,140.001,279
	c15.743,0,30.507-6.093,41.573-17.157l80.268-80.268C272.906,170.509,279,155.743,279,140.001c0-15.743-6.094-30.509-17.159-41.574
	L181.574,18.159z M29.186,170.546c-8.118-8.12-12.59-18.969-12.59-30.545c0-11.578,4.472-22.426,12.591-30.545l80.268-80.268
	c8.119-8.118,18.967-12.59,30.545-12.59s22.424,4.472,30.544,12.59l40.847,40.846l-41.945,41.944l-36.137-36.136l-11.517,11.518
	l47.655,47.656l53.463-53.464l11.454,11.454l-64.919,64.92L110.33,98.811L33.89,175.25L29.186,170.546z M250.812,170.546
	l-80.268,80.268c-8.119,8.118-18.967,12.59-30.544,12.59s-22.426-4.472-30.545-12.59l-41.018-41.017l41.82-41.818l36.137,36.136
	l11.517-11.518l-47.655-47.656L56.92,198.279l-11.511-11.511l64.921-64.919l59.113,59.113l76.437-76.44l4.933,4.933
	c8.118,8.119,12.59,18.969,12.59,30.545C263.404,151.579,258.932,162.427,250.812,170.546z"/>
</svg>
